<?xml version="1.0" standalone="no"?>
<!DOCTYPE svg PUBLIC "-//W3C//DTD SVG 1.1//EN" "http://www.w3.org/Graphics/SVG/1.1/DTD/svg11.dtd" >
<svg xmlns="http://www.w3.org/2000/svg" xmlns:xlink="http://www.w3.org/1999/xlink" version="1.1">
<metadata>
Created by FontForge 20170731 at Fri Jul 21 00:46:53 2017
 By Aleksey,,,
(c) 2017 Connary Fagen
</metadata>
<defs>
<font id="VanguardCF-Heavy" horiz-adv-x="913" >
  <font-face 
    font-family="Vanguard CF Heavy"
    font-weight="900"
    font-stretch="normal"
    units-per-em="2048"
    panose-1="0 0 10 0 0 0 0 0 0 0"
    ascent="1638"
    descent="-410"
    x-height="1570"
    cap-height="1570"
    bbox="-442 -688 2997 2000"
    underline-thickness="0"
    underline-position="0"
    unicode-range="U+0020-25CA"
  />
<missing-glyph 
d="M171 1570h578v-1826h-578v1826zM608 1388v59h-301v-59h118v-69h-120v-59h303v59h-120v69h120zM488 1084v128h-183v-190h303v62h-120zM365 1150h60v-66h-60v66zM608 913v60h-303v-60h120v-68h-120v-60h183v128h120zM608 681v183h-60v-122h-243v-61h303zM608 433v207h-183
v-102h63v42h60v-85h-183v145h-60v-207h303zM608 118v206h-303v-206h303zM365 265h183v-86h-183v86zM608 15v62h-303v-62h128l-128 -85v-60h303v60h-186l128 85h58z" />
    <glyph glyph-name=".notdef" 
d="M171 1570h578v-1826h-578v1826zM608 1388v59h-301v-59h118v-69h-120v-59h303v59h-120v69h120zM488 1084v128h-183v-190h303v62h-120zM365 1150h60v-66h-60v66zM608 913v60h-303v-60h120v-68h-120v-60h183v128h120zM608 681v183h-60v-122h-243v-61h303zM608 433v207h-183
v-102h63v42h60v-85h-183v145h-60v-207h303zM608 118v206h-303v-206h303zM365 265h183v-86h-183v86zM608 15v62h-303v-62h128l-128 -85v-60h303v60h-186l128 85h58z" />
    <glyph glyph-name="glyph1" horiz-adv-x="0" 
 />
    <glyph glyph-name="glyph2" horiz-adv-x="682" 
 />
    <glyph glyph-name="space" unicode=" " horiz-adv-x="273" 
 />
    <glyph glyph-name="exclam" unicode="!" horiz-adv-x="459" 
d="M374 493h-289l-61 1077h411zM378 28q-61 -62 -149 -62t-149 62q-63 62 -63 146q0 86 63 147q61 61 149 61t149 -61t61 -147q0 -85 -61 -146z" />
    <glyph glyph-name="quotedbl" unicode="&#x22;" horiz-adv-x="998" 
d="M435 799h-321l-29 771h379zM884 799h-321l-29 771h379z" />
    <glyph glyph-name="numbersign" unicode="#" horiz-adv-x="1122" 
d="M1094 1280v-357h-121v-276h121v-357h-121v-290h-379v290h-65v-290h-381v290h-121v357h121v276h-121v357h121v290h381v-290h65v290h379v-290h121zM529 647h65v276h-65v-276z" />
    <glyph glyph-name="dollar" unicode="$" horiz-adv-x="916" 
d="M430 1041v-32q0 -34 29.5 -59.5t67 -38.5t98 -34t97.5 -39q66 -32 113 -107q47 -77 47 -192v-37q0 -276 -264 -335v-167h-311v167q-266 56 -266 357v80h389v-77q0 -41 33 -41q29 0 29 41v31q0 35 -27 59t-61.5 36t-91 31t-93.5 38q-181 83 -178 307v38q0 280 266 334v169
h311v-171q261 -55 261 -355v-80h-389v77q0 41 -31 41q-29 0 -29 -41z" />
    <glyph glyph-name="percent" unicode="%" horiz-adv-x="2135" 
d="M130 1502q102 90 299 90q195 0 299 -90q103 -91 103 -302v-251q0 -212 -103 -302q-103 -91 -299 -91q-197 0 -299 90q-103 90 -103 303v251q0 212 103 302zM894 0h-379l726 1570h379zM457 932v283q0 43 -29 43t-29 -43v-283q0 -43 29 -43t29 43zM2006 68
q-104 -90 -299 -90q-197 0 -300 91q-103 90 -103 301v251q0 212 103 303q103 90 300 90q195 0 299 -89q102 -90 102 -304v-251q0 -212 -102 -302zM1678 638v-283q0 -43 29 -43t29 43v283q0 43 -29 43t-29 -43z" />
    <glyph glyph-name="ampersand" unicode="&#x26;" horiz-adv-x="928" 
d="M468 939l426 3v-592q0 -194 -105 -282t-316 -88q-213 0 -322.5 89.5t-109.5 280.5v177q0 174 136 246v17q-119 68 -117 219v230q0 180 103 263t310 83q209 0 311 -82.5t102 -263.5v-237h-384v218q0 31 -29 31t-29 -31v-254q0 -27 24 -27zM503 345v273h-35q-26 0 -26 -27
v-246q0 -31 31 -31q30 0 30 31z" />
    <glyph glyph-name="quotesingle" unicode="'" horiz-adv-x="549" 
d="M435 799h-321l-29 771h379z" />
    <glyph glyph-name="parenleft" unicode="(" horiz-adv-x="723" 
d="M713 155v-334q-256 0 -421 96q-73 42 -122 117q-50 72 -78 145q-27 71 -42 182q-16 108 -19 201q-4 79 -4 223q0 78 2 174q1 56 10 162q8 89 21 152q16 71 38 133q26 72 61 117q94 123 205 168q146 58 349 58v-334q-147 0 -214 -101q-30 -44 -47 -132q-18 -92 -22 -172
q-5 -97 -5 -225q0 -123 4 -191q3 -83 13 -154q9 -76 29 -126q63 -166 242 -159z" />
    <glyph glyph-name="parenright" unicode=")" horiz-adv-x="723" 
d="M10 -179v334q179 -7 244 159q18 44 29 126q8 67 13 154q3 77 3 191q0 128 -5 225q-6 91 -22 172q-17 87 -46 132q-69 101 -216 101v334q166 -3 279.5 -34.5t188.5 -97.5q57 -53 91 -99t57 -112q25 -73 38 -133q15 -70 22 -152q8 -90 9 -162q1 -48 1 -174q0 -135 -3 -223
q-5 -95 -19 -201q-15 -111 -42 -182q-30 -73 -78 -145q-50 -73 -120 -115.5t-180 -70.5q-106 -27 -244 -27z" />
    <glyph glyph-name="asterisk" unicode="*" horiz-adv-x="1078" 
d="M877 1446l123 -212l-251 -125l251 -126l-123 -212l-234 156l17 -280h-242l17 280l-234 -156l-122 212l252 126l-252 125l122 212l234 -156l-17 280h242l-17 -280z" />
    <glyph glyph-name="plus" unicode="+" horiz-adv-x="1225" 
d="M814 976h343v-382h-343v-341h-403v341h-343v382h343v342h403v-342z" />
    <glyph glyph-name="comma" unicode="," horiz-adv-x="539" 
d="M370 -350h-242q48 173 44 350h-121v335h437v-118q0 -198 -32 -349q-32 -146 -86 -218z" />
    <glyph glyph-name="hyphen" unicode="-" horiz-adv-x="592" 
d="M565 606h-538v358h538v-358z" />
    <glyph glyph-name="period" unicode="." horiz-adv-x="512" 
d="M405 28q-61 -62 -149 -62t-149 62q-63 62 -63 146q0 86 63 147q61 61 149 61t149 -61t61 -147q0 -85 -61 -146z" />
    <glyph glyph-name="slash" unicode="/" horiz-adv-x="614" 
d="M418 0h-369l128 1570h388z" />
    <glyph glyph-name="zero" unicode="0" 
d="M138 1499q112 86 320 86t318 -86t110 -286v-856q0 -200 -110 -286t-318 -86t-320 86q-111 85 -111 286v856q0 201 111 286zM486 358v854q0 39 -29 39t-29 -39v-854q0 -39 29 -39t29 39z" />
    <glyph glyph-name="one" unicode="1" horiz-adv-x="658" 
d="M230 1570h401v-1570h-401v1135q-65 -80 -203 -80v379q62 0 116.5 34t86.5 102z" />
    <glyph glyph-name="two" unicode="2" horiz-adv-x="935" 
d="M901 1215v-275q0 -82 -33.5 -151.5t-89.5 -114.5q-44 -36 -113 -83q-21 -14 -72.5 -45.5t-80 -53t-49.5 -46.5q-35 -43 -35 -89v-22h463v-335h-850v387q0 84 33 155.5t87 118.5q52 44 110 86q23 16 70.5 46.5t76 52t48.5 47.5q34 41 34 90v229q0 39 -29 39t-29 -39v-256
h-398v259q0 198 110 284t317 86q210 0 320 -86t110 -284z" />
    <glyph glyph-name="three" unicode="3" horiz-adv-x="925" 
d="M898 1215v-210q0 -140 -128 -211v-17q128 -72 128 -212v-210q0 -200 -109 -285t-320 -85q-210 0 -319 85t-109 285v208h399v-205q0 -39 29 -39t29 39v197q0 45 -17 58t-70 13h-90v318h90q52 0 69.5 13t17.5 58v197q0 39 -29 39t-29 -39v-205h-399v208q0 200 109 285
t319 85q211 0 320 -85t109 -285z" />
    <glyph glyph-name="four" unicode="4" horiz-adv-x="1046" 
d="M899 654h120v-335h-120v-319h-401v319h-471v335l205 916h667v-916zM471 1200l-90 -546h117v546h-27z" />
    <glyph glyph-name="five" unicode="5" horiz-adv-x="911" 
d="M558 1114q147 0 237 -84q89 -86 89 -277v-395q0 -192 -107.5 -281t-322.5 -89t-321 88t-106 282v222h398v-213q0 -44 29 -44t29 44v365q0 43 -29 45q-29 0 -29 -45v-80h-398v918h818v-334h-420v-156q67 34 133 34z" />
    <glyph glyph-name="six" unicode="6" horiz-adv-x="907" 
d="M456 -15q-214 0 -321.5 89t-107.5 281v879q0 194 106 282t321 88q212 0 314 -87.5t102 -282.5v-230h-389v225q0 41 -27 41q-29 0 -29 -41l3 -316q2 3 30 19q8 4 17 8q35 14 92 14q126 0 214 -66q100 -76 100 -275v-258q0 -194 -106 -282t-319 -88zM425 573v-215
q0 -39 29 -39t29 39v215q0 41 -29 41q-17 0 -23 -8.5t-6 -32.5z" />
    <glyph glyph-name="seven" unicode="7" horiz-adv-x="844" 
d="M27 1236v334h790v-334l-312 -1236h-394l326 1236h-410z" />
    <glyph glyph-name="eight" unicode="8" horiz-adv-x="916" 
d="M457 -15q-212 0 -321 85t-109 285v201q0 172 137 246v17q-118 76 -120 224v196q0 180 103 263t310 83q209 0 311 -82.5t102 -263.5v-196q0 -147 -117 -224v-17q137 -74 136 -246v-201q0 -200 -109 -285t-323 -85zM457 954q29 0 29 38v220q0 39 -29 39q-27 0 -27 -39v-220
q0 -38 27 -38zM457 319q31 0 31 41v271q0 36 -31 36q-29 0 -29 -36v-271q0 -41 29 -41z" />
    <glyph glyph-name="nine" unicode="9" horiz-adv-x="907" 
d="M452 1585q214 0 321.5 -89t107.5 -281v-879q0 -194 -106 -282t-321 -88q-212 0 -314 87.5t-102 282.5v231h389v-226q0 -41 27 -41q29 0 29 41l-3 316q-7 -7 -29 -18q-1 0 -3.5 -1.5t-6 -3t-7.5 -3.5q-34 -15 -93 -15q-126 0 -214 67q-100 76 -100 274v258q0 194 106 282
t319 88zM483 997v215q0 39 -29 39t-29 -39v-215q0 -41 29 -41q17 0 23 8.5t6 32.5z" />
    <glyph glyph-name="colon" unicode=":" horiz-adv-x="512" 
d="M405 1021q-62 -62 -149 -62t-149 62q-63 61 -63 147t63 147q61 61 149 61t149 -61t61 -147t-61 -147zM405 255q-62 -62 -149 -62t-149 62q-63 61 -63 146t63 147q61 61 149 61t149 -61t61 -147q0 -85 -61 -146z" />
    <glyph glyph-name="semicolon" unicode=";" horiz-adv-x="544" 
d="M439 1021q-62 -62 -149 -62t-149 62t-62 147t62 147q61 61 149 61t149 -61t61 -147t-61 -147zM365 -126h-242q48 173 44 350h-121v334h437v-118q0 -197 -32 -346t-86 -220z" />
    <glyph glyph-name="less" unicode="&#x3c;" horiz-adv-x="592" 
d="M536 573v-399l-480 387v448l480 387v-399l-229 -198v-28z" />
    <glyph glyph-name="equal" unicode="=" horiz-adv-x="1107" 
d="M1080 778h-1053v383h1053v-383zM1080 271h-1053v383h1053v-383z" />
    <glyph glyph-name="greater" unicode="&#x3e;" horiz-adv-x="592" 
d="M536 561l-480 -387v399l229 198v28l-229 198v399l480 -387v-448z" />
    <glyph glyph-name="question" unicode="?" horiz-adv-x="933" 
d="M442 964h-401v249q0 201 111 286q112 86 319 86t319 -86q111 -86 111 -286v-209q0 -83 -18 -144.5t-47 -90.5q-23 -23 -61 -52q-14 -11 -39.5 -25.5t-41 -27t-26.5 -29.5q-19 -28 -19 -72v-70h-391v116q0 82 17.5 143.5t45.5 87.5t58 45q13 9 51 26t52 35q18 22 18 59
v207q0 39 -29 39t-29 -39v-248zM601 28q-61 -62 -149 -62t-149 62q-62 62 -62 146q0 85 62 147q61 61 149 61t149 -61t61 -147q0 -85 -61 -146z" />
    <glyph glyph-name="at" unicode="@" horiz-adv-x="1117" 
d="M527 1585h110q241 0 348 -116q106 -115 106 -363v-533q0 -115 -60.5 -168t-187.5 -53h-177q-119 0 -170 51t-51 170v294q0 120 50.5 171t170.5 51h114v17q0 86 -33.5 127.5t-109.5 41.5h-110q-77 0 -110 -41.5t-33 -127.5v-534q0 -141 57 -209t209 -68h99v-310h-170
q-285 0 -418.5 121t-133.5 382v618q0 481 500 479zM739 628h22q19 0 19 21v162h-38q-20 0 -20 -19v-143q0 -19 17 -21z" />
    <glyph glyph-name="A" unicode="A" horiz-adv-x="986" 
d="M971 0h-382l-14 225h-164l-13 -225h-383l137 1570h683zM474 1208l-41 -647h122l-41 647h-40z" />
    <glyph glyph-name="B" unicode="B" horiz-adv-x="918" 
d="M763 819v-20q128 -74 128 -229v-200q0 -212 -67 -291t-273 -79h-524v1570h521q196 0 262 -79t66 -291v-179q0 -75 -25 -122t-88 -80zM447 1236h-19v-311h21q23 0 30 8t7 30v230q0 43 -39 43zM492 379v249q0 21 -7.5 29.5t-30.5 8.5h-26v-328h23q23 0 32 9.5t9 31.5z" />
    <glyph glyph-name="C" unicode="C" 
d="M486 602h400v-250q0 -198 -111 -285t-318 -87q-208 0 -319 87t-111 285v861q0 201 111 286q112 86 320 86t318 -86t110 -286v-249h-400v248q0 39 -29 39t-29 -39v-857q0 -41 29 -41t29 41v247z" />
    <glyph glyph-name="D" unicode="D" horiz-adv-x="914" 
d="M27 1570h516q207 0 276 -79q68 -80 68 -291v-830q0 -212 -69 -291t-275 -79h-516v1570zM486 377v816q0 43 -41 43h-17v-901h17q20 -1 30.5 9.5t10.5 32.5z" />
    <glyph glyph-name="E" unicode="E" horiz-adv-x="672" 
d="M645 1570v-334h-217v-280h212v-331h-212v-290h217v-335h-618v1570h618z" />
    <glyph glyph-name="F" unicode="F" horiz-adv-x="672" 
d="M645 1570v-334h-215v-299h215v-329h-215v-608h-403v1570h618z" />
    <glyph glyph-name="G" unicode="G" 
d="M886 1213v-215h-398v214q0 39 -31 39q-32 0 -32 -39v-854q0 -24 8.5 -31.5t32.5 -7.5t33.5 8.5t9.5 30.5v260h-40v321h417v-582q0 -200 -110 -286t-318 -86t-320 86q-111 85 -111 286v856q0 201 111 286q112 86 320 86t318 -86t110 -286z" />
    <glyph glyph-name="H" unicode="H" 
d="M486 930v640h400v-1570h-400v594h-58v-594h-401v1570h401v-640h58z" />
    <glyph glyph-name="I" unicode="I" horiz-adv-x="455" 
d="M428 0h-401v1570h401v-1570z" />
    <glyph glyph-name="J" unicode="J" horiz-adv-x="919" 
d="M32 618h401v-260q0 -39 30 -39q29 0 29 39v1212h401v-1213q0 -201 -111 -286q-112 -86 -319 -86q-208 0 -320 86q-111 85 -111 286v261z" />
    <glyph glyph-name="K" unicode="K" horiz-adv-x="976" 
d="M969 0h-380l-118 573l-46 -158v-415h-398v1570h398v-531h17l114 531h398l-188 -747z" />
    <glyph glyph-name="L" unicode="L" horiz-adv-x="704" 
d="M428 1570v-1235h243v-335h-644v1570h401z" />
    <glyph glyph-name="M" unicode="M" horiz-adv-x="1389" 
d="M396 0h-369v1570h598l59 -1031h21l58 1031h599v-1570h-369v1021h-29l-63 -1021h-415l-61 1021h-29v-1021z" />
    <glyph glyph-name="N" unicode="N" horiz-adv-x="1054" 
d="M396 0h-369v1570h499l121 -903h24l-12 246v657h368v-1570h-500l-121 903h-22l12 -244v-659z" />
    <glyph glyph-name="O" unicode="O" 
d="M138 1499q112 86 320 86t318 -86t110 -286v-856q0 -200 -110 -286t-318 -86t-320 86q-111 85 -111 286v856q0 201 111 286zM486 358v854q0 39 -29 39t-29 -39v-854q0 -39 29 -39t29 39z" />
    <glyph glyph-name="P" unicode="P" horiz-adv-x="921" 
d="M27 1570h521q201 0 268 -79q66 -79 66 -291v-538q0 -212 -66 -291q-67 -79 -268 -79h-120v-292h-401v1570zM492 667v528q0 22 -10.5 32.5t-30.5 9.5h-23v-614h23q24 0 32.5 10t8.5 34z" />
    <glyph glyph-name="Q" unicode="Q" horiz-adv-x="983" 
d="M852 172l104 -107l-219 -222l-158 150q-66 -9 -122 -8q-207 0 -319 86q-111 85 -111 286v856q0 201 111 286q112 86 320 86t318 -86t110 -286v-856q0 -110 -34 -185zM428 1212v-854q0 -39 29 -39t29 39v854q0 39 -29 39t-29 -39z" />
    <glyph glyph-name="R" unicode="R" horiz-adv-x="914" 
d="M782 519l140 -519h-361l-104 425h-29v-425h-401v1570h521q201 0 268 -79q66 -79 66 -291v-430q0 -164 -100 -251zM451 1237h-23v-507h40q24 8 24 41v424q0 42 -41 42z" />
    <glyph glyph-name="S" unicode="S" horiz-adv-x="916" 
d="M876 1212v-220h-384v218q0 41 -29 41q-31 0 -31 -41v-183q0 -71 117 -105q49 -16 108 -42q53 -25 109 -59q50 -33 83 -98q33 -66 33 -156v-209q0 -192 -105 -281t-314 -89t-314 89t-105 281v221h384v-219q0 -39 31 -39q29 0 29 39v183q0 24 -11.5 42t-36 32t-47.5 23.5
t-62.5 24.5t-65.5 26q-53 23 -107 59q-50 32 -83 98q-34 64 -34 156v208q0 192 105 281t313 89q209 0 313 -89t104 -281z" />
    <glyph glyph-name="T" unicode="T" horiz-adv-x="861" 
d="M27 1570h808v-334h-204v-1236h-401v1236h-203v334z" />
    <glyph glyph-name="U" unicode="U" 
d="M486 1570h400v-1213q0 -200 -110 -286t-318 -86t-320 86q-111 85 -111 286v1213h401v-1212q0 -39 29 -39t29 39v1212z" />
    <glyph glyph-name="V" unicode="V" horiz-adv-x="986" 
d="M152 0l-137 1570h383l76 -1208h40l75 1208h382l-136 -1570h-683z" />
    <glyph glyph-name="W" unicode="W" horiz-adv-x="1646" 
d="M1183 432l51 1138h389l-121 -1570h-615l-54 1137h-17l-57 -1137h-614l-121 1570h389l51 -1138h17l65 1138h555l65 -1138h17z" />
    <glyph glyph-name="X" unicode="X" horiz-adv-x="994" 
d="M800 797l171 -797h-394l-67 497h-25l-67 -497h-394l171 797l-164 773h392l62 -476h25l62 476h392z" />
    <glyph glyph-name="Y" unicode="Y" horiz-adv-x="1013" 
d="M517 1082l92 488h383l-289 -1051v-519h-394v519l-287 1051h381l92 -488h22z" />
    <glyph glyph-name="Z" unicode="Z" horiz-adv-x="800" 
d="M759 0h-727v335l354 875v26h-340v334h722v-334l-365 -876v-25h356v-335z" />
    <glyph glyph-name="bracketleft" unicode="[" horiz-adv-x="684" 
d="M657 -179h-630v1928h630v-334h-239v-1260h239v-334z" />
    <glyph glyph-name="backslash" unicode="\" horiz-adv-x="614" 
d="M437 1570l128 -1570h-369l-147 1570h388z" />
    <glyph glyph-name="bracketright" unicode="]" horiz-adv-x="684" 
d="M657 1749v-1928h-630v334h239v1260h-239v334h630z" />
    <glyph glyph-name="asciicircum" unicode="^" horiz-adv-x="1392" 
d="M485 1041h-400l388 480h447l387 -480h-399l-198 229h-27z" />
    <glyph glyph-name="underscore" unicode="_" horiz-adv-x="1153" 
d="M1114 -358h-1075v358h1075v-358z" />
    <glyph glyph-name="grave" unicode="`" horiz-adv-x="443" 
d="M350 1442l94 -281h-350l-94 281h350z" />
    <glyph glyph-name="a" unicode="a" horiz-adv-x="986" 
d="M971 0h-382l-14 225h-164l-13 -225h-383l137 1570h683zM474 1208l-41 -647h122l-41 647h-40z" />
    <glyph glyph-name="b" unicode="b" horiz-adv-x="918" 
d="M763 819v-20q128 -74 128 -229v-200q0 -212 -67 -291t-273 -79h-524v1570h521q196 0 262 -79t66 -291v-179q0 -75 -25 -122t-88 -80zM447 1236h-19v-311h21q23 0 30 8t7 30v230q0 43 -39 43zM492 379v249q0 21 -7.5 29.5t-30.5 8.5h-26v-328h23q23 0 32 9.5t9 31.5z" />
    <glyph glyph-name="c" unicode="c" 
d="M486 602h400v-250q0 -198 -111 -285t-318 -87q-208 0 -319 87t-111 285v861q0 201 111 286q112 86 320 86t318 -86t110 -286v-249h-400v248q0 39 -29 39t-29 -39v-857q0 -41 29 -41t29 41v247z" />
    <glyph glyph-name="d" unicode="d" horiz-adv-x="914" 
d="M27 1570h516q207 0 276 -79q68 -80 68 -291v-830q0 -212 -69 -291t-275 -79h-516v1570zM486 377v816q0 43 -41 43h-17v-901h17q20 -1 30.5 9.5t10.5 32.5z" />
    <glyph glyph-name="e" unicode="e" horiz-adv-x="672" 
d="M645 1570v-334h-217v-280h212v-331h-212v-290h217v-335h-618v1570h618z" />
    <glyph glyph-name="f" unicode="f" horiz-adv-x="672" 
d="M645 1570v-334h-215v-299h215v-329h-215v-608h-403v1570h618z" />
    <glyph glyph-name="g" unicode="g" 
d="M886 1213v-215h-398v214q0 39 -31 39q-32 0 -32 -39v-854q0 -24 8.5 -31.5t32.5 -7.5t33.5 8.5t9.5 30.5v260h-40v321h417v-582q0 -200 -110 -286t-318 -86t-320 86q-111 85 -111 286v856q0 201 111 286q112 86 320 86t318 -86t110 -286z" />
    <glyph glyph-name="h" unicode="h" 
d="M486 930v640h400v-1570h-400v594h-58v-594h-401v1570h401v-640h58z" />
    <glyph glyph-name="i" unicode="i" horiz-adv-x="455" 
d="M428 0h-401v1570h401v-1570z" />
    <glyph glyph-name="j" unicode="j" horiz-adv-x="919" 
d="M32 618h401v-260q0 -39 30 -39q29 0 29 39v1212h401v-1213q0 -201 -111 -286q-112 -86 -319 -86q-208 0 -320 86q-111 85 -111 286v261z" />
    <glyph glyph-name="k" unicode="k" horiz-adv-x="976" 
d="M969 0h-380l-118 573l-46 -158v-415h-398v1570h398v-531h17l114 531h398l-188 -747z" />
    <glyph glyph-name="l" unicode="l" horiz-adv-x="704" 
d="M428 1570v-1235h243v-335h-644v1570h401z" />
    <glyph glyph-name="m" unicode="m" horiz-adv-x="1389" 
d="M396 0h-369v1570h598l59 -1031h21l58 1031h599v-1570h-369v1021h-29l-63 -1021h-415l-61 1021h-29v-1021z" />
    <glyph glyph-name="n" unicode="n" horiz-adv-x="1054" 
d="M396 0h-369v1570h499l121 -903h24l-12 246v657h368v-1570h-500l-121 903h-22l12 -244v-659z" />
    <glyph glyph-name="o" unicode="o" 
d="M138 1499q112 86 320 86t318 -86t110 -286v-856q0 -200 -110 -286t-318 -86t-320 86q-111 85 -111 286v856q0 201 111 286zM486 358v854q0 39 -29 39t-29 -39v-854q0 -39 29 -39t29 39z" />
    <glyph glyph-name="p" unicode="p" horiz-adv-x="921" 
d="M27 1570h521q201 0 268 -79q66 -79 66 -291v-538q0 -212 -66 -291q-67 -79 -268 -79h-120v-292h-401v1570zM492 667v528q0 22 -10.5 32.5t-30.5 9.5h-23v-614h23q24 0 32.5 10t8.5 34z" />
    <glyph glyph-name="q" unicode="q" horiz-adv-x="983" 
d="M852 172l104 -107l-219 -222l-158 150q-66 -9 -122 -8q-207 0 -319 86q-111 85 -111 286v856q0 201 111 286q112 86 320 86t318 -86t110 -286v-856q0 -110 -34 -185zM428 1212v-854q0 -39 29 -39t29 39v854q0 39 -29 39t-29 -39z" />
    <glyph glyph-name="r" unicode="r" horiz-adv-x="914" 
d="M782 519l140 -519h-361l-104 425h-29v-425h-401v1570h521q201 0 268 -79q66 -79 66 -291v-430q0 -164 -100 -251zM451 1237h-23v-507h40q24 8 24 41v424q0 42 -41 42z" />
    <glyph glyph-name="s" unicode="s" horiz-adv-x="916" 
d="M876 1212v-220h-384v218q0 41 -29 41q-31 0 -31 -41v-183q0 -71 117 -105q49 -16 108 -42q53 -25 109 -59q50 -33 83 -98q33 -66 33 -156v-209q0 -192 -105 -281t-314 -89t-314 89t-105 281v221h384v-219q0 -39 31 -39q29 0 29 39v183q0 24 -11.5 42t-36 32t-47.5 23.5
t-62.5 24.5t-65.5 26q-53 23 -107 59q-50 32 -83 98q-34 64 -34 156v208q0 192 105 281t313 89q209 0 313 -89t104 -281z" />
    <glyph glyph-name="t" unicode="t" horiz-adv-x="861" 
d="M27 1570h808v-334h-204v-1236h-401v1236h-203v334z" />
    <glyph glyph-name="u" unicode="u" 
d="M486 1570h400v-1213q0 -200 -110 -286t-318 -86t-320 86q-111 85 -111 286v1213h401v-1212q0 -39 29 -39t29 39v1212z" />
    <glyph glyph-name="v" unicode="v" horiz-adv-x="986" 
d="M152 0l-137 1570h383l76 -1208h40l75 1208h382l-136 -1570h-683z" />
    <glyph glyph-name="w" unicode="w" horiz-adv-x="1646" 
d="M1183 432l51 1138h389l-121 -1570h-615l-54 1137h-17l-57 -1137h-614l-121 1570h389l51 -1138h17l65 1138h555l65 -1138h17z" />
    <glyph glyph-name="x" unicode="x" horiz-adv-x="994" 
d="M800 797l171 -797h-394l-67 497h-25l-67 -497h-394l171 797l-164 773h392l62 -476h25l62 476h392z" />
    <glyph glyph-name="y" unicode="y" horiz-adv-x="1013" 
d="M517 1082l92 488h383l-289 -1051v-519h-394v519l-287 1051h381l92 -488h22z" />
    <glyph glyph-name="z" unicode="z" horiz-adv-x="800" 
d="M759 0h-727v335l354 875v26h-340v334h722v-334l-365 -876v-25h356v-335z" />
    <glyph glyph-name="braceleft" unicode="{" horiz-adv-x="947" 
d="M870 -186h-356q-103 0 -163.5 54t-60.5 161v488l-213 249v38l213 249v488q0 111 63 163q62 52 161 52h356v-336h-121q-70 0 -70 -61v-323l-191 -232v-38l191 -232v-322q0 -61 70 -62h121v-336z" />
    <glyph glyph-name="bar" unicode="|" horiz-adv-x="457" 
d="M430 -143h-403v1851h403v-1851z" />
    <glyph glyph-name="braceright" unicode="}" horiz-adv-x="947" 
d="M433 -186h-356v336h121q70 0 70 62v322l191 232v38l-191 232v323q0 61 -70 61h-121v336h356q97 0 161 -52q63 -52 63 -163v-488l213 -249v-38l-213 -249v-488q0 -107 -60.5 -161t-163.5 -54z" />
    <glyph glyph-name="asciitilde" unicode="~" horiz-adv-x="855" 
d="M580 626q-54 0 -99.5 17t-70.5 40q-62 56 -113 56q-39 0 -64 -19t-26 -51h-166q-5 275 242 275q54 0 100.5 -16.5t70.5 -39.5q59 -57 113 -57q38 0 63 19t27 49h166q2 -136 -60.5 -204.5t-182.5 -68.5z" />
    <glyph glyph-name="exclamdown" unicode="&#xa1;" horiz-adv-x="459" 
d="M80 1038q61 61 149 61t149 -61t61 -147q0 -85 -61 -146q-62 -62 -149 -62t-149 62q-63 61 -63 146t63 147zM24 -505l61 1077h289l61 -1077h-411z" />
    <glyph glyph-name="cent" unicode="&#xa2;" 
d="M886 1019v-159h-400v179q0 41 -29 41t-29 -41v-508q0 -41 29 -41t29 41v176h400v-156q0 -323 -273 -380v-171h-311v171q-275 56 -275 380v468q0 323 275 382v169h311v-169q273 -60 273 -382z" />
    <glyph glyph-name="sterling" unicode="&#xa3;" horiz-adv-x="1049" 
d="M541 573v-238h476v-335h-990v335h113v238h-113v335h113v302q0 200 111 286q112 86 319 86q208 0 318 -86t110 -286v-246h-399v244q0 38 -29 40q-29 0 -29 -40v-300h263v-335h-263z" />
    <glyph glyph-name="currency" unicode="&#xa4;" horiz-adv-x="1181" 
d="M1056 1111q0 -101 -42 -195l90 -90l-186 -186l-82 82q-112 -70 -246 -70q-133 0 -245 70l-82 -82l-186 186l90 90q-43 94 -42 195q0 109 47 201l-95 96l186 184l89 -87q112 65 239 65q128 0 238 -65l89 87l186 -184l-95 -96q47 -92 47 -201zM421 966q57 -72 170 -72
q112 0 169 72t57 145t-57 146q-57 74 -169 74q-113 0 -170 -74q-57 -73 -57 -146t57 -145z" />
    <glyph glyph-name="yen" unicode="&#xa5;" horiz-adv-x="1005" 
d="M988 1570l-288 -1051v-10h201v-108h-201v-55h201v-109h-201v-237h-395v237h-199v109h199v55h-199v108h199v10l-286 1051h380l93 -488h22l92 488h382z" />
    <glyph glyph-name="brokenbar" unicode="&#xa6;" horiz-adv-x="457" 
d="M430 847h-403v861h403v-861zM27 719h403v-862h-403v862z" />
    <glyph glyph-name="section" unicode="&#xa7;" horiz-adv-x="938" 
d="M905 809v-360v-17v-84q0 -198 -109 -283t-323 -85q-216 0 -323 85q-109 85 -109 283v85h389v-64q0 -46 43 -46q41 0 41 46v41q0 24 -12 39t-38 23t-51 11.5t-66.5 8.5t-68.5 10q-62 12 -114 33q-54 20 -88 78q-35 59 -35 148v461q0 194 106.5 281.5t323.5 87.5
t322.5 -87.5t105.5 -281.5v-85h-389v64q0 45 -39 47q-41 0 -41 -47v-40q0 -35 33.5 -54.5t89.5 -21.5q57 -3 115 -16q62 -13 114 -33q54 -22 88 -79q35 -59 35 -148zM430 855v-70q0 -53 84 -70v70q0 57 -84 70z" />
    <glyph glyph-name="dieresis" unicode="&#xa8;" horiz-adv-x="701" 
d="M270 1221q-47 -45 -113 -45q-67 0 -112 45t-45 114q0 67 45 114q45 46 112 46t113 -46t46 -114q0 -69 -46 -114zM656 1221q-45 -45 -111 -45q-67 0 -112 45q-46 45 -46 114q0 68 46 114q45 46 112 46q66 0 111 -46q45 -47 45 -114q0 -69 -45 -114z" />
    <glyph glyph-name="copyright" unicode="&#xa9;" horiz-adv-x="793" 
d="M396 852q-161 0 -265 104t-104 265q0 159 104 265q104 105 265 105q162 0 266 -105q104 -106 104 -265q0 -162 -103 -265q-104 -104 -267 -104zM401 1004q77 0 133 37t70 109h-90q-36 -68 -116 -68q-58 0 -95 37t-37 101t37 102t95 38q78 0 116 -68h90q-15 76 -73 113
t-130 37q-96 0 -161 -62q-64 -61 -64 -160q0 -96 64 -156t161 -60z" />
    <glyph glyph-name="ordfeminine" unicode="&#xaa;" horiz-adv-x="892" 
d="M877 640h-365l-9 94h-114l-8 -94h-366l122 794h619zM428 1123l-15 -157h67l-16 157h-36z" />
    <glyph glyph-name="guillemotleft" unicode="&#xab;" horiz-adv-x="1385" 
d="M476 717l331 -490h-403l-331 490l331 490h403zM981 717l331 -490h-402l-331 490l331 490h402z" />
    <glyph glyph-name="logicalnot" unicode="&#xac;" horiz-adv-x="902" 
d="M27 957h847v-503h-403v147h-444v356z" />
    <glyph glyph-name="uni00AD" unicode="&#xad;" horiz-adv-x="592" 
d="M565 606h-538v358h538v-358z" />
    <glyph glyph-name="registered" unicode="&#xae;" horiz-adv-x="793" 
d="M396 852q-161 0 -265 104t-104 265q0 159 104 265q104 105 265 105q162 0 266 -105q104 -106 104 -265q0 -162 -103 -265q-104 -104 -267 -104zM222 1430v-428h90v133h127l76 -133h99l-90 152q80 38 80 126q0 70 -48 110t-134 40h-200zM423 1212h-111v140h111
q84 0 84 -72q0 -68 -84 -68z" />
    <glyph glyph-name="overscore" unicode="&#xaf;" horiz-adv-x="619" 
d="M620 1183h-620v322h620v-322z" />
    <glyph glyph-name="degree" unicode="&#xb0;" horiz-adv-x="826" 
d="M127 1502q101 90 286 90t286 -90q100 -91 100 -302v-251q0 -212 -99 -302q-98 -91 -287 -91t-287 91q-99 90 -99 302v251q0 212 100 302zM442 932v283q0 43 -29 43t-29 -43v-283q0 -43 29 -43t29 43z" />
    <glyph glyph-name="plusminus" unicode="&#xb1;" horiz-adv-x="1177" 
d="M807 1570v-341h343v-382h-343v-342h-403v342h-343v382h343v341h403zM1080 27h-1053v383h1053v-383z" />
    <glyph glyph-name="acute" unicode="&#xb4;" horiz-adv-x="443" 
d="M350 1161h-350l94 281h350z" />
    <glyph glyph-name="mu" unicode="&#xb5;" 
d="M486 358v1212h400v-1213q0 -200 -110 -286t-319 -86h-15v-241h-403v495q-12 49 -12 118v1213h415v-1247q3 -1 8 -2t7 -2q29 0 29 39z" />
    <glyph glyph-name="paragraph" unicode="&#xb6;" horiz-adv-x="1401" 
d="M369 1570h537v-1570h-403v292h-134q-205 0 -273 80q-69 80 -69 290v538q0 212 69 291q67 79 273 79zM971 0v1570h403v-1570h-403zM471 649h32v563h-32q-41 0 -41 -48v-468q0 -47 41 -47z" />
    <glyph glyph-name="middot" unicode="&#xb7;" horiz-adv-x="614" 
d="M456 639q-62 -62 -149 -62t-149 62t-62 146q0 85 62 147q61 61 149 61t149 -61t61 -147q0 -85 -61 -146z" />
    <glyph glyph-name="cedilla" unicode="&#xb8;" horiz-adv-x="366" 
d="M212 -63v-2q62 -15 109 -57q46 -42 46 -114t-25 -119q-26 -48 -75 -69q-48 -20 -93 -28q-41 -7 -106 -7h-68v176h68q25 0 41.5 13t16.5 34q0 46 -51 47h-75v121l89 68h206z" />
    <glyph glyph-name="ordmasculine" unicode="&#xba;" horiz-adv-x="849" 
d="M425 647q-172 0 -284 114q-114 113 -114 282q0 171 114 287q113 114 284 114q173 0 285 -114q113 -116 113 -287q0 -169 -113 -282q-112 -114 -285 -114zM378 996q20 -17 46.5 -18t48 18t19.5 47q0 29 -19 48.5t-48 19.5q-27 2 -46 -20t-19 -48.5t18 -46.5z" />
    <glyph glyph-name="guillemotright" unicode="&#xbb;" horiz-adv-x="1385" 
d="M476 227h-403l331 490l-331 490h403l331 -490zM981 227h-402l331 490l-331 490h402l331 -490z" />
    <glyph glyph-name="questiondown" unicode="&#xbf;" horiz-adv-x="933" 
d="M342 1038q61 61 148 61q88 0 149 -61q62 -62 62 -147q0 -84 -62 -146t-149 -62q-86 0 -148 62t-62 146q0 85 62 147zM500 101h401v-249q0 -200 -111 -287q-112 -86 -319 -86t-319 86q-111 87 -111 287v209q0 82 18.5 144t47.5 91q28 28 61 52q15 11 39.5 25.5t40.5 27
t27 29.5q19 28 19 72v70h390v-116q0 -82 -17 -143t-45 -87q-34 -31 -59 -46q-13 -9 -51 -26t-52 -35q-18 -23 -18 -59v-207q0 -39 29 -39t29 39v248z" />
    <glyph glyph-name="Agrave" unicode="&#xc0;" horiz-adv-x="986" 
d="M577 1937l94 -282h-350l-94 282h350zM971 0h-382l-14 225h-164l-13 -225h-383l137 1570h683zM474 1208l-41 -647h122l-41 647h-40z" />
    <glyph glyph-name="Aacute" unicode="&#xc1;" horiz-adv-x="986" 
d="M411 1937h350l-94 -282h-350zM971 0h-382l-14 225h-164l-13 -225h-383l137 1570h683zM474 1208l-41 -647h122l-41 647h-40z" />
    <glyph glyph-name="Acircumflex" unicode="&#xc2;" horiz-adv-x="986" 
d="M507 1746h-31l-25 -91h-284l101 287h445l103 -287h-285zM971 0h-382l-14 225h-164l-13 -225h-383l137 1570h683zM474 1208l-41 -647h122l-41 647h-40z" />
    <glyph glyph-name="Atilde" unicode="&#xc3;" horiz-adv-x="986" 
d="M266 1681h-165q-3 136 59 204.5t183 68.5q76 0 126 -28q52 -30 84 -55q34 -28 72 -28q39 0 63.5 18t26.5 50h166q3 -136 -59 -204.5t-182 -68.5q-56 0 -101.5 16.5t-70.5 39.5q-59 55 -111 55q-39 0 -64 -18t-27 -50zM971 0h-382l-14 225h-164l-13 -225h-383l137 1570
h683zM474 1208l-41 -647h122l-41 647h-40z" />
    <glyph glyph-name="Adieresis" unicode="&#xc4;" horiz-adv-x="986" 
d="M410 1716q-47 -45 -113 -45q-67 0 -112 45t-45 114q0 68 45 114t112 46t113 -46t46 -114q0 -69 -46 -114zM796 1716q-45 -45 -111 -45q-67 0 -112 45q-46 45 -46 114q0 68 46 114q45 46 112 46q66 0 111 -46t45 -114q0 -69 -45 -114zM971 0h-382l-14 225h-164l-13 -225
h-383l137 1570h683zM474 1208l-41 -647h122l-41 647h-40z" />
    <glyph glyph-name="Aring" unicode="&#xc5;" horiz-adv-x="986" 
d="M645 1640q-60 -60 -153 -60q-94 0 -153 60q-59 61 -59 151q0 91 58 149q59 59 154 59t154 -59t59 -149q0 -91 -60 -151zM492 1823q-31 0 -31 -32q0 -33 31 -33q32 0 32 33q0 32 -32 32zM971 0h-382l-14 225h-164l-13 -225h-383l137 1570h683zM474 1208l-41 -647h122
l-41 647h-40z" />
    <glyph glyph-name="AE" unicode="&#xc6;" horiz-adv-x="1268" 
d="M1239 1570v-334h-217v-280h212v-331h-212v-290h217v-335h-618v210h-186l-32 -210h-388l267 1570h957zM589 1212l-101 -657h133v657h-32z" />
    <glyph glyph-name="Ccedilla" unicode="&#xc7;" 
d="M886 1213v-249h-400v248q0 39 -29 39t-29 -39v-857q0 -41 29 -41t29 41v247h400v-250q0 -319 -309 -364l-67 -51v-2q64 -15 110 -57t46 -114q0 -70 -26 -119q-25 -48 -74 -69q-48 -20 -93 -28q-42 -7 -106 -7h-68v176h68q25 0 41.5 13t16.5 34q0 46 -51 47h-75v121l68 53
q-340 31 -340 367v861q0 201 111 286q112 86 320 86t318 -86t110 -286z" />
    <glyph glyph-name="Egrave" unicode="&#xc8;" horiz-adv-x="672" 
d="M435 1937l94 -282h-350l-94 282h350zM645 1570v-334h-217v-280h212v-331h-212v-290h217v-335h-618v1570h618z" />
    <glyph glyph-name="Eacute" unicode="&#xc9;" horiz-adv-x="672" 
d="M270 1937h350l-94 -282h-350zM645 1570v-334h-217v-280h212v-331h-212v-290h217v-335h-618v1570h618z" />
    <glyph glyph-name="Ecircumflex" unicode="&#xca;" horiz-adv-x="672" 
d="M365 1746h-30l-26 -91h-283l100 287h446l102 -287h-285zM27 1570h618v-334h-217v-280h212v-331h-212v-290h217v-335h-618v1570z" />
    <glyph glyph-name="Edieresis" unicode="&#xcb;" horiz-adv-x="672" 
d="M268 1716q-46 -45 -112 -45q-67 0 -112 45q-46 45 -46 114q0 68 46 114q45 46 112 46q66 0 112 -46t46 -114q0 -69 -46 -114zM431 1944q45 46 112 46q66 0 112 -46q45 -46 45 -114q0 -69 -45 -114q-46 -45 -112 -45q-67 0 -112 45t-45 114q0 68 45 114zM27 1570h618v-334
h-217v-280h212v-331h-212v-290h217v-335h-618v1570z" />
    <glyph glyph-name="Igrave" unicode="&#xcc;" horiz-adv-x="455" 
d="M314 1937l94 -282h-350l-94 282h350zM428 0h-401v1570h401v-1570z" />
    <glyph glyph-name="Iacute" unicode="&#xcd;" horiz-adv-x="455" 
d="M404 1655h-349l93 282h350zM428 0h-401v1570h401v-1570z" />
    <glyph glyph-name="Icircumflex" unicode="&#xce;" horiz-adv-x="455" 
d="M188 1655h-284l101 287h446l102 -287h-285l-24 91h-31zM428 0h-401v1570h401v-1570z" />
    <glyph glyph-name="Idieresis" unicode="&#xcf;" horiz-adv-x="455" 
d="M147 1716q-47 -45 -112 -45q-67 0 -113 45q-45 45 -45 114q0 68 45 114q46 46 113 46q66 0 112 -46t46 -114q0 -69 -46 -114zM534 1716q-47 -45 -112 -45q-67 0 -112 45t-45 114q0 68 45 114t112 46q66 0 112 -46q45 -46 45 -114q0 -69 -45 -114zM428 0h-401v1570h401
v-1570z" />
    <glyph glyph-name="Eth" unicode="&#xd0;" horiz-adv-x="988" 
d="M101 1570h515q207 0 276 -79t69 -291v-830q0 -212 -69 -291t-276 -79h-515v606h-50v358h50v606zM560 377v816q0 43 -41 43h-17v-272h49v-358h-49v-271h17q20 -1 30.5 9.5t10.5 32.5z" />
    <glyph glyph-name="Ntilde" unicode="&#xd1;" horiz-adv-x="1054" 
d="M676 1638q-56 0 -101.5 16.5t-70.5 39.5q-59 55 -111 55q-39 0 -64 -18t-27 -50h-165q-3 136 59 204.5t183 68.5q52 1 98.5 -16.5t73 -39.5t56 -39.5t53.5 -15.5q39 0 64 18t27 50h165q3 -136 -59 -204.5t-181 -68.5zM396 0h-369v1570h499l121 -903h24l-12 246v657h368
v-1570h-500l-121 903h-22l12 -244v-659z" />
    <glyph glyph-name="Ograve" unicode="&#xd2;" 
d="M543 1937l94 -282h-350l-94 282h350zM138 1499q112 86 320 86t318 -86t110 -286v-856q0 -200 -110 -286t-318 -86t-320 86q-111 85 -111 286v856q0 201 111 286zM486 358v854q0 39 -29 39t-29 -39v-854q0 -39 29 -39t29 39z" />
    <glyph glyph-name="Oacute" unicode="&#xd3;" 
d="M633 1655h-350l94 282h350zM138 1499q112 86 320 86t318 -86t110 -286v-856q0 -200 -110 -286t-318 -86t-320 86q-111 85 -111 286v856q0 201 111 286zM486 358v854q0 39 -29 39t-29 -39v-854q0 -39 29 -39t29 39z" />
    <glyph glyph-name="Ocircumflex" unicode="&#xd4;" 
d="M416 1655h-283l101 287h445l103 -287h-285l-24 91h-31zM138 1499q112 86 320 86t318 -86t110 -286v-856q0 -200 -110 -286t-318 -86t-320 86q-111 85 -111 286v856q0 201 111 286zM486 358v854q0 39 -29 39t-29 -39v-854q0 -39 29 -39t29 39z" />
    <glyph glyph-name="Otilde" unicode="&#xd5;" 
d="M606 1638q-56 0 -101.5 16.5t-70.5 39.5q-59 55 -111 55q-39 0 -64 -18t-27 -50h-165q-3 136 59 204.5t183 68.5q76 0 126 -28q52 -30 84 -55q34 -28 72 -28q39 0 63.5 18t26.5 50h166q3 -136 -59 -204.5t-182 -68.5zM138 1499q112 86 320 86t318 -86t110 -286v-856
q0 -200 -110 -286t-318 -86t-320 86q-111 85 -111 286v856q0 201 111 286zM486 358v854q0 39 -29 39t-29 -39v-854q0 -39 29 -39t29 39z" />
    <glyph glyph-name="Odieresis" unicode="&#xd6;" 
d="M376 1716q-46 -45 -113 -45t-112 45t-45 114q0 68 45 114t112 46t113 -46t46 -114q0 -69 -46 -114zM762 1716q-45 -45 -111 -45q-67 0 -112 45q-46 45 -46 114q0 68 46 114q45 46 112 46q66 0 111 -46t45 -114q0 -69 -45 -114zM138 1499q112 86 320 86t318 -86t110 -286
v-856q0 -200 -110 -286t-318 -86t-320 86q-111 85 -111 286v856q0 201 111 286zM486 358v854q0 39 -29 39t-29 -39v-854q0 -39 29 -39t29 39z" />
    <glyph glyph-name="multiply" unicode="&#xd7;" horiz-adv-x="1174" 
d="M865 773l243 -242l-272 -270l-242 242l-241 -242l-285 285l243 242l-244 243l271 269l242 -242l241 241l285 -284z" />
    <glyph glyph-name="Oslash" unicode="&#xd8;" horiz-adv-x="896" 
d="M869 1591l-60 -137q68 -88 68 -241v-856q0 -200 -110 -286t-318 -86q-160 0 -256 46l-22 -51h-144l60 136q-68 88 -68 241v856q0 201 111 286q112 86 319 86q158 0 254 -46l22 52h144zM420 1212v-326l58 133v193q0 39 -29 39t-29 -39zM420 555v-197q0 -39 29 -39t29 39
v330z" />
    <glyph glyph-name="Ugrave" unicode="&#xd9;" 
d="M543 1937l94 -282h-350l-94 282h350zM486 1570h400v-1213q0 -200 -110 -286t-318 -86t-320 86q-111 85 -111 286v1213h401v-1212q0 -39 29 -39t29 39v1212z" />
    <glyph glyph-name="Uacute" unicode="&#xda;" 
d="M633 1655h-350l94 282h350zM486 1570h400v-1213q0 -200 -110 -286t-318 -86t-320 86q-111 85 -111 286v1213h401v-1212q0 -39 29 -39t29 39v1212z" />
    <glyph glyph-name="Ucircumflex" unicode="&#xdb;" 
d="M416 1655h-283l101 287h445l103 -287h-285l-24 91h-31zM486 1570h400v-1213q0 -200 -110 -286t-318 -86t-320 86q-111 85 -111 286v1213h401v-1212q0 -39 29 -39t29 39v1212z" />
    <glyph glyph-name="Udieresis" unicode="&#xdc;" 
d="M376 1716q-46 -45 -113 -45t-112 45t-45 114q0 68 45 114t112 46t113 -46t46 -114q0 -69 -46 -114zM762 1716q-45 -45 -111 -45q-67 0 -112 45q-46 45 -46 114q0 68 46 114q45 46 112 46q66 0 111 -46t45 -114q0 -69 -45 -114zM486 1570h400v-1213q0 -200 -110 -286
t-318 -86t-320 86q-111 85 -111 286v1213h401v-1212q0 -39 29 -39t29 39v1212z" />
    <glyph glyph-name="Yacute" unicode="&#xdd;" horiz-adv-x="1013" 
d="M427 1937h350l-94 -282h-350zM517 1082l92 488h383l-289 -1051v-519h-394v519l-287 1051h381l92 -488h22z" />
    <glyph glyph-name="Thorn" unicode="&#xde;" horiz-adv-x="919" 
d="M430 1425h94q123 0 193.5 -18.5t109.5 -64.5q39 -45 53 -111q13 -62 13 -171v-548q0 -110 -13 -172q-14 -65 -53 -110q-39 -46 -110 -64.5t-193 -18.5h-94v-147h-403v1570h403v-145zM490 546v480q0 22 -8.5 32.5t-25.5 9.5h-26v-563h26q34 0 34 41z" />
    <glyph glyph-name="germandbls" unicode="&#xdf;" horiz-adv-x="930" 
d="M898 1213v-162q0 -172 -127 -245v-18q131 -74 132 -244v-218q0 -203 -114 -268q-58 -33 -128.5 -45.5t-182.5 -12.5h-19v311h14q23 0 31 9t8 37v245q0 39 -34 40h-19v312h19q31 0 31 41v217q0 39 -48 39q-31 0 -33 -39v-1212h-401v1213q0 200 113 286t321 86
q212 0 325 -86q112 -85 112 -286z" />
    <glyph glyph-name="agrave" unicode="&#xe0;" horiz-adv-x="986" 
d="M577 1937l94 -282h-350l-94 282h350zM971 0h-382l-14 225h-164l-13 -225h-383l137 1570h683zM474 1208l-41 -647h122l-41 647h-40z" />
    <glyph glyph-name="aacute" unicode="&#xe1;" horiz-adv-x="986" 
d="M411 1937h350l-94 -282h-350zM971 0h-382l-14 225h-164l-13 -225h-383l137 1570h683zM474 1208l-41 -647h122l-41 647h-40z" />
    <glyph glyph-name="acircumflex" unicode="&#xe2;" horiz-adv-x="986" 
d="M507 1746h-31l-25 -91h-284l101 287h445l103 -287h-285zM971 0h-382l-14 225h-164l-13 -225h-383l137 1570h683zM474 1208l-41 -647h122l-41 647h-40z" />
    <glyph glyph-name="atilde" unicode="&#xe3;" horiz-adv-x="986" 
d="M266 1681h-165q-3 136 59 204.5t183 68.5q76 0 126 -28q52 -30 84 -55q34 -28 72 -28q39 0 63.5 18t26.5 50h166q3 -136 -59 -204.5t-182 -68.5q-56 0 -101.5 16.5t-70.5 39.5q-59 55 -111 55q-39 0 -64 -18t-27 -50zM971 0h-382l-14 225h-164l-13 -225h-383l137 1570
h683zM474 1208l-41 -647h122l-41 647h-40z" />
    <glyph glyph-name="adieresis" unicode="&#xe4;" horiz-adv-x="986" 
d="M410 1716q-47 -45 -113 -45q-67 0 -112 45t-45 114q0 68 45 114t112 46t113 -46t46 -114q0 -69 -46 -114zM796 1716q-45 -45 -111 -45q-67 0 -112 45q-46 45 -46 114q0 68 46 114q45 46 112 46q66 0 111 -46t45 -114q0 -69 -45 -114zM971 0h-382l-14 225h-164l-13 -225
h-383l137 1570h683zM474 1208l-41 -647h122l-41 647h-40z" />
    <glyph glyph-name="aring" unicode="&#xe5;" horiz-adv-x="986" 
d="M645 1640q-60 -60 -153 -60q-94 0 -153 60q-59 61 -59 151q0 91 58 149q59 59 154 59t154 -59t59 -149q0 -91 -60 -151zM492 1823q-31 0 -31 -32q0 -33 31 -33q32 0 32 33q0 32 -32 32zM971 0h-382l-14 225h-164l-13 -225h-383l137 1570h683zM474 1208l-41 -647h122
l-41 647h-40z" />
    <glyph glyph-name="ae" unicode="&#xe6;" horiz-adv-x="1268" 
d="M1239 1570v-334h-217v-280h212v-331h-212v-290h217v-335h-618v210h-186l-32 -210h-388l267 1570h957zM589 1212l-101 -657h133v657h-32z" />
    <glyph glyph-name="ccedilla" unicode="&#xe7;" 
d="M886 1213v-249h-400v248q0 39 -29 39t-29 -39v-857q0 -41 29 -41t29 41v247h400v-250q0 -319 -309 -364l-67 -51v-2q64 -15 110 -57t46 -114q0 -70 -26 -119q-25 -48 -74 -69q-48 -20 -93 -28q-42 -7 -106 -7h-68v176h68q25 0 41.5 13t16.5 34q0 46 -51 47h-75v121l68 53
q-340 31 -340 367v861q0 201 111 286q112 86 320 86t318 -86t110 -286z" />
    <glyph glyph-name="egrave" unicode="&#xe8;" horiz-adv-x="672" 
d="M435 1937l94 -282h-350l-94 282h350zM645 1570v-334h-217v-280h212v-331h-212v-290h217v-335h-618v1570h618z" />
    <glyph glyph-name="eacute" unicode="&#xe9;" horiz-adv-x="672" 
d="M270 1937h350l-94 -282h-350zM645 1570v-334h-217v-280h212v-331h-212v-290h217v-335h-618v1570h618z" />
    <glyph glyph-name="ecircumflex" unicode="&#xea;" horiz-adv-x="672" 
d="M365 1746h-30l-26 -91h-283l100 287h446l102 -287h-285zM27 1570h618v-334h-217v-280h212v-331h-212v-290h217v-335h-618v1570z" />
    <glyph glyph-name="edieresis" unicode="&#xeb;" horiz-adv-x="672" 
d="M268 1716q-46 -45 -112 -45q-67 0 -112 45q-46 45 -46 114q0 68 46 114q45 46 112 46q66 0 112 -46t46 -114q0 -69 -46 -114zM431 1944q45 46 112 46q66 0 112 -46q45 -46 45 -114q0 -69 -45 -114q-46 -45 -112 -45q-67 0 -112 45t-45 114q0 68 45 114zM27 1570h618v-334
h-217v-280h212v-331h-212v-290h217v-335h-618v1570z" />
    <glyph glyph-name="igrave" unicode="&#xec;" horiz-adv-x="455" 
d="M314 1937l94 -282h-350l-94 282h350zM428 0h-401v1570h401v-1570z" />
    <glyph glyph-name="iacute" unicode="&#xed;" horiz-adv-x="455" 
d="M404 1655h-349l93 282h350zM428 0h-401v1570h401v-1570z" />
    <glyph glyph-name="icircumflex" unicode="&#xee;" horiz-adv-x="455" 
d="M188 1655h-284l101 287h446l102 -287h-285l-24 91h-31zM428 0h-401v1570h401v-1570z" />
    <glyph glyph-name="idieresis" unicode="&#xef;" horiz-adv-x="455" 
d="M147 1716q-47 -45 -112 -45q-67 0 -113 45q-45 45 -45 114q0 68 45 114q46 46 113 46q66 0 112 -46t46 -114q0 -69 -46 -114zM534 1716q-47 -45 -112 -45q-67 0 -112 45t-45 114q0 68 45 114t112 46q66 0 112 -46q45 -46 45 -114q0 -69 -45 -114zM428 0h-401v1570h401
v-1570z" />
    <glyph glyph-name="eth" unicode="&#xf0;" horiz-adv-x="988" 
d="M101 1570h515q207 0 276 -79t69 -291v-830q0 -212 -69 -291t-276 -79h-515v606h-50v358h50v606zM560 377v816q0 43 -41 43h-17v-272h49v-358h-49v-271h17q20 -1 30.5 9.5t10.5 32.5z" />
    <glyph glyph-name="ntilde" unicode="&#xf1;" horiz-adv-x="1054" 
d="M676 1638q-56 0 -101.5 16.5t-70.5 39.5q-59 55 -111 55q-39 0 -64 -18t-27 -50h-165q-3 136 59 204.5t183 68.5q52 1 98.5 -16.5t73 -39.5t56 -39.5t53.5 -15.5q39 0 64 18t27 50h165q3 -136 -59 -204.5t-181 -68.5zM396 0h-369v1570h499l121 -903h24l-12 246v657h368
v-1570h-500l-121 903h-22l12 -244v-659z" />
    <glyph glyph-name="ograve" unicode="&#xf2;" 
d="M543 1937l94 -282h-350l-94 282h350zM138 1499q112 86 320 86t318 -86t110 -286v-856q0 -200 -110 -286t-318 -86t-320 86q-111 85 -111 286v856q0 201 111 286zM486 358v854q0 39 -29 39t-29 -39v-854q0 -39 29 -39t29 39z" />
    <glyph glyph-name="oacute" unicode="&#xf3;" 
d="M633 1655h-350l94 282h350zM138 1499q112 86 320 86t318 -86t110 -286v-856q0 -200 -110 -286t-318 -86t-320 86q-111 85 -111 286v856q0 201 111 286zM486 358v854q0 39 -29 39t-29 -39v-854q0 -39 29 -39t29 39z" />
    <glyph glyph-name="ocircumflex" unicode="&#xf4;" 
d="M416 1655h-283l101 287h445l103 -287h-285l-24 91h-31zM138 1499q112 86 320 86t318 -86t110 -286v-856q0 -200 -110 -286t-318 -86t-320 86q-111 85 -111 286v856q0 201 111 286zM486 358v854q0 39 -29 39t-29 -39v-854q0 -39 29 -39t29 39z" />
    <glyph glyph-name="otilde" unicode="&#xf5;" 
d="M606 1638q-56 0 -101.5 16.5t-70.5 39.5q-59 55 -111 55q-39 0 -64 -18t-27 -50h-165q-3 136 59 204.5t183 68.5q76 0 126 -28q52 -30 84 -55q34 -28 72 -28q39 0 63.5 18t26.5 50h166q3 -136 -59 -204.5t-182 -68.5zM138 1499q112 86 320 86t318 -86t110 -286v-856
q0 -200 -110 -286t-318 -86t-320 86q-111 85 -111 286v856q0 201 111 286zM486 358v854q0 39 -29 39t-29 -39v-854q0 -39 29 -39t29 39z" />
    <glyph glyph-name="odieresis" unicode="&#xf6;" 
d="M376 1716q-46 -45 -113 -45t-112 45t-45 114q0 68 45 114t112 46t113 -46t46 -114q0 -69 -46 -114zM762 1716q-45 -45 -111 -45q-67 0 -112 45q-46 45 -46 114q0 68 46 114q45 46 112 46q66 0 111 -46t45 -114q0 -69 -45 -114zM138 1499q112 86 320 86t318 -86t110 -286
v-856q0 -200 -110 -286t-318 -86t-320 86q-111 85 -111 286v856q0 201 111 286zM486 358v854q0 39 -29 39t-29 -39v-854q0 -39 29 -39t29 39z" />
    <glyph glyph-name="divide" unicode="&#xf7;" horiz-adv-x="1078" 
d="M548 1079q-79 0 -134 55q-56 54 -56 131q0 75 56 131q55 55 134 55q77 0 132 -55q54 -56 54 -131q0 -77 -54 -131q-55 -55 -132 -55zM1027 594h-995v382h995v-382zM548 116q-79 0 -134 55q-56 54 -56 131q0 76 56 132q56 54 134 54q76 0 132 -54q54 -56 54 -132
q0 -77 -54 -131q-55 -55 -132 -55z" />
    <glyph glyph-name="oslash" unicode="&#xf8;" horiz-adv-x="896" 
d="M869 1591l-60 -137q68 -88 68 -241v-856q0 -200 -110 -286t-318 -86q-160 0 -256 46l-22 -51h-144l60 136q-68 88 -68 241v856q0 201 111 286q112 86 319 86q158 0 254 -46l22 52h144zM420 1212v-326l58 133v193q0 39 -29 39t-29 -39zM420 555v-197q0 -39 29 -39t29 39
v330z" />
    <glyph glyph-name="ugrave" unicode="&#xf9;" 
d="M543 1937l94 -282h-350l-94 282h350zM486 1570h400v-1213q0 -200 -110 -286t-318 -86t-320 86q-111 85 -111 286v1213h401v-1212q0 -39 29 -39t29 39v1212z" />
    <glyph glyph-name="uacute" unicode="&#xfa;" 
d="M633 1655h-350l94 282h350zM486 1570h400v-1213q0 -200 -110 -286t-318 -86t-320 86q-111 85 -111 286v1213h401v-1212q0 -39 29 -39t29 39v1212z" />
    <glyph glyph-name="ucircumflex" unicode="&#xfb;" 
d="M416 1655h-283l101 287h445l103 -287h-285l-24 91h-31zM486 1570h400v-1213q0 -200 -110 -286t-318 -86t-320 86q-111 85 -111 286v1213h401v-1212q0 -39 29 -39t29 39v1212z" />
    <glyph glyph-name="udieresis" unicode="&#xfc;" 
d="M376 1716q-46 -45 -113 -45t-112 45t-45 114q0 68 45 114t112 46t113 -46t46 -114q0 -69 -46 -114zM762 1716q-45 -45 -111 -45q-67 0 -112 45q-46 45 -46 114q0 68 46 114q45 46 112 46q66 0 111 -46t45 -114q0 -69 -45 -114zM486 1570h400v-1213q0 -200 -110 -286
t-318 -86t-320 86q-111 85 -111 286v1213h401v-1212q0 -39 29 -39t29 39v1212z" />
    <glyph glyph-name="yacute" unicode="&#xfd;" horiz-adv-x="1013" 
d="M427 1937h350l-94 -282h-350zM517 1082l92 488h383l-289 -1051v-519h-394v519l-287 1051h381l92 -488h22z" />
    <glyph glyph-name="thorn" unicode="&#xfe;" horiz-adv-x="919" 
d="M430 1425h94q123 0 193.5 -18.5t109.5 -64.5q39 -45 53 -111q13 -62 13 -171v-548q0 -110 -13 -172q-14 -65 -53 -110q-39 -46 -110 -64.5t-193 -18.5h-94v-147h-403v1570h403v-145zM490 546v480q0 22 -8.5 32.5t-25.5 9.5h-26v-563h26q34 0 34 41z" />
    <glyph glyph-name="ydieresis" unicode="&#xff;" horiz-adv-x="1013" 
d="M425 1716q-47 -45 -112 -45q-67 0 -112 45q-46 45 -46 114q0 68 46 114q45 46 112 46q66 0 112 -46t46 -114q0 -69 -46 -114zM812 1716q-46 -45 -112 -45q-67 0 -112 45t-45 114q0 68 45 114t112 46q66 0 112 -46q45 -46 45 -114q0 -69 -45 -114zM517 1082l92 488h383
l-289 -1051v-519h-394v519l-287 1051h381l92 -488h22z" />
    <glyph glyph-name="Amacron" unicode="&#x100;" horiz-adv-x="986" 
d="M183 2000h619v-322h-619v322zM971 0h-382l-14 225h-164l-13 -225h-383l137 1570h683zM474 1208l-41 -647h122l-41 647h-40z" />
    <glyph glyph-name="amacron" unicode="&#x101;" horiz-adv-x="986" 
d="M183 2000h619v-322h-619v322zM971 0h-382l-14 225h-164l-13 -225h-383l137 1570h683zM474 1208l-41 -647h122l-41 647h-40z" />
    <glyph glyph-name="Abreve" unicode="&#x102;" horiz-adv-x="986" 
d="M750 1696q-74 -44 -258 -44q-185 0 -259 44t-74 168v80h257v-26q0 -26 76 -25q73 0 73 25v26h258v-80q0 -125 -73 -168zM971 0h-382l-14 225h-164l-13 -225h-383l137 1570h683zM474 1208l-41 -647h122l-41 647h-40z" />
    <glyph glyph-name="abreve" unicode="&#x103;" horiz-adv-x="986" 
d="M750 1696q-74 -44 -258 -44q-185 0 -259 44t-74 168v80h257v-26q0 -26 76 -25q73 0 73 25v26h258v-80q0 -125 -73 -168zM971 0h-382l-14 225h-164l-13 -225h-383l137 1570h683zM474 1208l-41 -647h122l-41 647h-40z" />
    <glyph glyph-name="Aogonek" unicode="&#x104;" horiz-adv-x="986" 
d="M971 0h-130q-75 0 -75 -58q0 -60 75 -60h106l-31 -264h-81q-202 0 -310.5 84.5t-108.5 239.5q0 169 161 237l-2 46h-164l-13 -225h-383l137 1570h683zM474 1208l-41 -647h122l-41 647h-40z" />
    <glyph glyph-name="aogonek" unicode="&#x105;" horiz-adv-x="986" 
d="M971 0h-130q-75 0 -75 -58q0 -60 75 -60h106l-31 -264h-81q-202 0 -310.5 84.5t-108.5 239.5q0 169 161 237l-2 46h-164l-13 -225h-383l137 1570h683zM474 1208l-41 -647h122l-41 647h-40z" />
    <glyph glyph-name="Cacute" unicode="&#x106;" 
d="M633 1655h-350l94 282h350zM486 602h400v-250q0 -198 -111 -285t-318 -87q-208 0 -319 87t-111 285v861q0 201 111 286q112 86 320 86t318 -86t110 -286v-249h-400v248q0 39 -29 39t-29 -39v-857q0 -41 29 -41t29 41v247z" />
    <glyph glyph-name="cacute" unicode="&#x107;" 
d="M633 1655h-350l94 282h350zM486 602h400v-250q0 -198 -111 -285t-318 -87q-208 0 -319 87t-111 285v861q0 201 111 286q112 86 320 86t318 -86t110 -286v-249h-400v248q0 39 -29 39t-29 -39v-857q0 -41 29 -41t29 41v247z" />
    <glyph glyph-name="Cdotaccent" unicode="&#x10a;" 
d="M457 1671q-71 0 -118 46q-49 46 -49 113q0 68 49 114q47 46 118 46q68 0 117 -46t49 -114q0 -67 -49 -113t-117 -46zM486 602h400v-250q0 -198 -111 -285t-318 -87q-208 0 -319 87t-111 285v861q0 201 111 286q112 86 320 86t318 -86t110 -286v-249h-400v248q0 39 -29 39
t-29 -39v-857q0 -41 29 -41t29 41v247z" />
    <glyph glyph-name="cdotaccent" unicode="&#x10b;" 
d="M457 1671q-71 0 -118 46q-49 46 -49 113q0 68 49 114q47 46 118 46q68 0 117 -46t49 -114q0 -67 -49 -113t-117 -46zM486 602h400v-250q0 -198 -111 -285t-318 -87q-208 0 -319 87t-111 285v861q0 201 111 286q112 86 320 86t318 -86t110 -286v-249h-400v248q0 39 -29 39
t-29 -39v-857q0 -41 29 -41t29 41v247z" />
    <glyph glyph-name="Ccaron" unicode="&#x10c;" 
d="M234 1655l-101 287h283l26 -90h31l24 90h285l-103 -287h-445zM486 602h400v-250q0 -198 -111 -285t-318 -87q-208 0 -319 87t-111 285v861q0 201 111 286q112 86 320 86t318 -86t110 -286v-249h-400v248q0 39 -29 39t-29 -39v-857q0 -41 29 -41t29 41v247z" />
    <glyph glyph-name="ccaron" unicode="&#x10d;" 
d="M234 1655l-101 287h283l26 -90h31l24 90h285l-103 -287h-445zM486 602h400v-250q0 -198 -111 -285t-318 -87q-208 0 -319 87t-111 285v861q0 201 111 286q112 86 320 86t318 -86t110 -286v-249h-400v248q0 39 -29 39t-29 -39v-857q0 -41 29 -41t29 41v247z" />
    <glyph glyph-name="Dcaron" unicode="&#x10e;" horiz-adv-x="914" 
d="M783 1942l-102 -287h-445l-101 287h283l26 -90h30l24 90h285zM27 1570h516q207 0 276 -79q68 -80 68 -291v-830q0 -212 -69 -291t-275 -79h-516v1570zM486 377v816q0 43 -41 43h-17v-901h17q20 -1 30.5 9.5t10.5 32.5z" />
    <glyph glyph-name="dcaron" unicode="&#x10f;" horiz-adv-x="914" 
d="M783 1942l-102 -287h-445l-101 287h283l26 -90h30l24 90h285zM27 1570h516q207 0 276 -79q68 -80 68 -291v-830q0 -212 -69 -291t-275 -79h-516v1570zM486 377v816q0 43 -41 43h-17v-901h17q20 -1 30.5 9.5t10.5 32.5z" />
    <glyph glyph-name="Dcroat" unicode="&#x110;" horiz-adv-x="988" 
d="M101 1570h515q207 0 276 -79t69 -291v-830q0 -212 -69 -291t-276 -79h-515v606h-50v358h50v606zM560 377v816q0 43 -41 43h-17v-272h49v-358h-49v-271h17q20 -1 30.5 9.5t10.5 32.5z" />
    <glyph glyph-name="dslash" unicode="&#x111;" horiz-adv-x="988" 
d="M101 1570h515q207 0 276 -79t69 -291v-830q0 -212 -69 -291t-276 -79h-515v606h-50v358h50v606zM560 377v816q0 43 -41 43h-17v-272h49v-358h-49v-271h17q20 -1 30.5 9.5t10.5 32.5z" />
    <glyph glyph-name="Emacron" unicode="&#x112;" horiz-adv-x="672" 
d="M41 1678v322h619v-322h-619zM27 1570h618v-334h-217v-280h212v-331h-212v-290h217v-335h-618v1570z" />
    <glyph glyph-name="emacron" unicode="&#x113;" horiz-adv-x="672" 
d="M41 1678v322h619v-322h-619zM27 1570h618v-334h-217v-280h212v-331h-212v-290h217v-335h-618v1570z" />
    <glyph glyph-name="Edotaccent" unicode="&#x116;" horiz-adv-x="672" 
d="M350 1671q-71 0 -118 46q-49 46 -49 113q0 68 49 114q47 46 118 46q68 0 117 -46q48 -46 48 -114q0 -66 -48 -113q-49 -46 -117 -46zM645 1570v-334h-217v-280h212v-331h-212v-290h217v-335h-618v1570h618z" />
    <glyph glyph-name="edotaccent" unicode="&#x117;" horiz-adv-x="672" 
d="M350 1671q-71 0 -118 46q-49 46 -49 113q0 68 49 114q47 46 118 46q68 0 117 -46q48 -46 48 -114q0 -66 -48 -113q-49 -46 -117 -46zM645 1570v-334h-217v-280h212v-331h-212v-290h217v-335h-618v1570h618z" />
    <glyph glyph-name="Eogonek" unicode="&#x118;" horiz-adv-x="672" 
d="M645 1570v-334h-217v-280h212v-331h-212v-290h217v-335h-106q-75 0 -75 -58q0 -60 75 -60h106l-31 -264h-82q-202 0 -310 84.5t-108 239.5q0 28 5 58h-92v1570h618z" />
    <glyph glyph-name="eogonek" unicode="&#x119;" horiz-adv-x="672" 
d="M645 1570v-334h-217v-280h212v-331h-212v-290h217v-335h-106q-75 0 -75 -58q0 -60 75 -60h106l-31 -264h-82q-202 0 -310 84.5t-108 239.5q0 28 5 58h-92v1570h618z" />
    <glyph glyph-name="Ecaron" unicode="&#x11a;" horiz-adv-x="672" 
d="M674 1942l-102 -287h-446l-100 287h283l26 -90h30l24 90h285zM27 1570h618v-334h-217v-280h212v-331h-212v-290h217v-335h-618v1570z" />
    <glyph glyph-name="ecaron" unicode="&#x11b;" horiz-adv-x="672" 
d="M674 1942l-102 -287h-446l-100 287h283l26 -90h30l24 90h285zM27 1570h618v-334h-217v-280h212v-331h-212v-290h217v-335h-618v1570z" />
    <glyph glyph-name="Gbreve" unicode="&#x11e;" 
d="M715 1696q-74 -44 -257 -44q-185 0 -259 44t-74 168v80h257v-26q0 -26 75 -25q73 0 74 25v26h257v-80q0 -125 -73 -168zM886 1213v-215h-398v214q0 39 -31 39q-32 0 -32 -39v-854q0 -24 8.5 -31.5t32.5 -7.5t33.5 8.5t9.5 30.5v260h-40v321h417v-582q0 -200 -110 -286
t-318 -86t-320 86q-111 85 -111 286v856q0 201 111 286q112 86 320 86t318 -86t110 -286z" />
    <glyph glyph-name="gbreve" unicode="&#x11f;" 
d="M715 1696q-74 -44 -257 -44q-185 0 -259 44t-74 168v80h257v-26q0 -26 75 -25q73 0 74 25v26h257v-80q0 -125 -73 -168zM886 1213v-215h-398v214q0 39 -31 39q-32 0 -32 -39v-854q0 -24 8.5 -31.5t32.5 -7.5t33.5 8.5t9.5 30.5v260h-40v321h417v-582q0 -200 -110 -286
t-318 -86t-320 86q-111 85 -111 286v856q0 201 111 286q112 86 320 86t318 -86t110 -286z" />
    <glyph glyph-name="Gdotaccent" unicode="&#x120;" 
d="M457 1671q-71 0 -118 46q-49 46 -49 113q0 68 49 114q47 46 118 46q68 0 117 -46t49 -114q0 -67 -49 -113t-117 -46zM886 1213v-215h-398v214q0 39 -31 39q-32 0 -32 -39v-854q0 -24 8.5 -31.5t32.5 -7.5t33.5 8.5t9.5 30.5v260h-40v321h417v-582q0 -200 -110 -286
t-318 -86t-320 86q-111 85 -111 286v856q0 201 111 286q112 86 320 86t318 -86t110 -286z" />
    <glyph glyph-name="gdotaccent" unicode="&#x121;" 
d="M457 1671q-71 0 -118 46q-49 46 -49 113q0 68 49 114q47 46 118 46q68 0 117 -46t49 -114q0 -67 -49 -113t-117 -46zM886 1213v-215h-398v214q0 39 -31 39q-32 0 -32 -39v-854q0 -24 8.5 -31.5t32.5 -7.5t33.5 8.5t9.5 30.5v260h-40v321h417v-582q0 -200 -110 -286
t-318 -86t-320 86q-111 85 -111 286v856q0 201 111 286q112 86 320 86t318 -86t110 -286z" />
    <glyph glyph-name="uni0122" unicode="&#x122;" 
d="M886 1213v-215h-398v214q0 39 -31 39q-32 0 -32 -39v-854q0 -24 8.5 -31.5t32.5 -7.5t33.5 8.5t9.5 30.5v260h-40v321h417v-582q0 -200 -110 -286t-318 -86t-320 86q-111 85 -111 286v856q0 201 111 286q112 86 320 86t318 -86t110 -286zM515 -688h-215q43 150 40 313
h-108v298h389v-106q0 -368 -106 -505z" />
    <glyph glyph-name="uni0123" unicode="&#x123;" 
d="M886 1213v-215h-398v214q0 39 -31 39q-32 0 -32 -39v-854q0 -24 8.5 -31.5t32.5 -7.5t33.5 8.5t9.5 30.5v260h-40v321h417v-582q0 -200 -110 -286t-318 -86t-320 86q-111 85 -111 286v856q0 201 111 286q112 86 320 86t318 -86t110 -286zM515 -688h-215q43 150 40 313
h-108v298h389v-106q0 -368 -106 -505z" />
    <glyph glyph-name="Hbar" unicode="&#x126;" 
d="M486 1415v155h400v-1570h-400v594h-58v-594h-401v1570h401v-155h58zM428 1092v-162h58v162h-58z" />
    <glyph glyph-name="hbar" unicode="&#x127;" 
d="M486 1415v155h400v-1570h-400v594h-58v-594h-401v1570h401v-155h58zM428 1092v-162h58v162h-58z" />
    <glyph glyph-name="Imacron" unicode="&#x12a;" horiz-adv-x="455" 
d="M539 1678h-619v322h619v-322zM428 0h-401v1570h401v-1570z" />
    <glyph glyph-name="imacron" unicode="&#x12b;" horiz-adv-x="455" 
d="M539 1678h-619v322h619v-322zM428 0h-401v1570h401v-1570z" />
    <glyph glyph-name="Iogonek" unicode="&#x12e;" horiz-adv-x="455" 
d="M27 164v1406h401v-1570h-105q-75 0 -76 -58q0 -60 76 -60h105l-30 -264h-82q-202 0 -310 84.5t-108 239.5q0 152 129 222z" />
    <glyph glyph-name="iogonek" unicode="&#x12f;" horiz-adv-x="455" 
d="M27 164v1406h401v-1570h-105q-75 0 -76 -58q0 -60 76 -60h105l-30 -264h-82q-202 0 -310 84.5t-108 239.5q0 152 129 222z" />
    <glyph glyph-name="Idot" unicode="&#x130;" horiz-adv-x="455" 
d="M229 1671q-70 0 -119 46t-49 113q0 68 49 114t119 46q68 0 117 -46q48 -46 48 -114q0 -66 -48 -113q-49 -46 -117 -46zM428 0h-401v1570h401v-1570z" />
    <glyph glyph-name="dotlessi" unicode="&#x131;" horiz-adv-x="455" 
d="M428 0h-401v1570h401v-1570z" />
    <glyph glyph-name="IJ" unicode="&#x132;" horiz-adv-x="1399" 
d="M428 0h-401v1570h401v-1570zM514 618h401v-260q0 -39 29 -39t29 39v1212h401v-1213q0 -201 -111 -286q-112 -86 -319 -86t-319 86q-111 85 -111 286v261z" />
    <glyph glyph-name="uni0136" unicode="&#x136;" horiz-adv-x="976" 
d="M471 573l-46 -158v-415h-398v1570h398v-531h17l114 531h398l-188 -747l203 -823h-380zM377 -375h-107v298h389v-106q0 -368 -106 -505h-215q44 152 39 313z" />
    <glyph glyph-name="uni0137" unicode="&#x137;" horiz-adv-x="976" 
d="M471 573l-46 -158v-415h-398v1570h398v-531h17l114 531h398l-188 -747l203 -823h-380zM377 -375h-107v298h389v-106q0 -368 -106 -505h-215q44 152 39 313z" />
    <glyph glyph-name="Lacute" unicode="&#x139;" horiz-adv-x="704" 
d="M155 1937h350l-94 -282h-350zM428 1570v-1235h243v-335h-644v1570h401z" />
    <glyph glyph-name="lacute" unicode="&#x13a;" horiz-adv-x="704" 
d="M155 1937h350l-94 -282h-350zM428 1570v-1235h243v-335h-644v1570h401z" />
    <glyph glyph-name="uni013B" unicode="&#x13b;" horiz-adv-x="704" 
d="M428 1570v-1235h243v-335h-644v1570h401zM266 -375h-107v298h389v-106q0 -368 -106 -505h-215q44 152 39 313z" />
    <glyph glyph-name="uni013C" unicode="&#x13c;" horiz-adv-x="704" 
d="M428 1570v-1235h243v-335h-644v1570h401zM266 -375h-107v298h389v-106q0 -368 -106 -505h-215q44 152 39 313z" />
    <glyph glyph-name="Lcaron" unicode="&#x13d;" horiz-adv-x="962" 
d="M27 1570h401v-1235h243v-335h-644v1570zM503 1236v334h437v-118q0 -198 -31.5 -346.5t-85.5 -219.5h-243q48 171 45 350h-122z" />
    <glyph glyph-name="lcaron" unicode="&#x13e;" horiz-adv-x="962" 
d="M27 1570h401v-1235h243v-335h-644v1570zM503 1236v334h437v-118q0 -198 -31.5 -346.5t-85.5 -219.5h-243q48 171 45 350h-122z" />
    <glyph glyph-name="Ldot" unicode="&#x13f;" horiz-adv-x="955" 
d="M27 1570h401v-1235h243v-335h-644v1570zM576 1043q61 61 149 61t149 -61t61 -147q0 -85 -61 -146q-62 -62 -149 -62t-149 62t-62 146q0 85 62 147z" />
    <glyph glyph-name="Lslash" unicode="&#x141;" horiz-adv-x="752" 
d="M476 710v-375h243v-335h-644v379l-75 -62v352l75 61v840h401v-508l208 172v-352z" />
    <glyph glyph-name="lslash" unicode="&#x142;" horiz-adv-x="752" 
d="M476 710v-375h243v-335h-644v379l-75 -62v352l75 61v840h401v-508l208 172v-352z" />
    <glyph glyph-name="Nacute" unicode="&#x143;" horiz-adv-x="1054" 
d="M703 1655h-350l94 282h350zM396 0h-369v1570h499l121 -903h24l-12 246v657h368v-1570h-500l-121 903h-22l12 -244v-659z" />
    <glyph glyph-name="nacute" unicode="&#x144;" horiz-adv-x="1054" 
d="M703 1655h-350l94 282h350zM396 0h-369v1570h499l121 -903h24l-12 246v657h368v-1570h-500l-121 903h-22l12 -244v-659z" />
    <glyph glyph-name="uni0145" unicode="&#x145;" horiz-adv-x="1054" 
d="M396 0h-369v1570h499l121 -903h24l-12 246v657h368v-1570h-500l-121 903h-22l12 -244v-659zM585 -688h-215q43 150 40 313h-108v298h389v-106q0 -368 -106 -505z" />
    <glyph glyph-name="uni0146" unicode="&#x146;" horiz-adv-x="1054" 
d="M396 0h-369v1570h499l121 -903h24l-12 246v657h368v-1570h-500l-121 903h-22l12 -244v-659zM585 -688h-215q43 150 40 313h-108v298h389v-106q0 -368 -106 -505z" />
    <glyph glyph-name="Ncaron" unicode="&#x147;" horiz-adv-x="1054" 
d="M304 1655l-101 287h283l26 -90h31l24 90h285l-103 -287h-445zM396 0h-369v1570h499l121 -903h24l-12 246v657h368v-1570h-500l-121 903h-22l12 -244v-659z" />
    <glyph glyph-name="ncaron" unicode="&#x148;" horiz-adv-x="1054" 
d="M304 1655l-101 287h283l26 -90h31l24 90h285l-103 -287h-445zM396 0h-369v1570h499l121 -903h24l-12 246v657h368v-1570h-500l-121 903h-22l12 -244v-659z" />
    <glyph glyph-name="Eng" unicode="&#x14a;" horiz-adv-x="1080" 
d="M1027 1570v-1423h26v-186q0 -114 -29.5 -183.5t-94.5 -105.5q-67 -36 -150 -48q-86 -11 -216 -11v303q51 0 69 9t18 37v38h-123l-121 903h-22l12 -244v-659h-369v1570h499l121 -903h24l-12 246v657h368z" />
    <glyph glyph-name="eng" unicode="&#x14b;" horiz-adv-x="1080" 
d="M1027 1570v-1423h26v-186q0 -114 -29.5 -183.5t-94.5 -105.5q-67 -36 -150 -48q-86 -11 -216 -11v303q51 0 69 9t18 37v38h-123l-121 903h-22l12 -244v-659h-369v1570h499l121 -903h24l-12 246v657h368z" />
    <glyph glyph-name="Omacron" unicode="&#x14c;" 
d="M768 1678h-620v322h620v-322zM138 1499q112 86 320 86t318 -86t110 -286v-856q0 -200 -110 -286t-318 -86t-320 86q-111 85 -111 286v856q0 201 111 286zM486 358v854q0 39 -29 39t-29 -39v-854q0 -39 29 -39t29 39z" />
    <glyph glyph-name="omacron" unicode="&#x14d;" 
d="M768 1678h-620v322h620v-322zM138 1499q112 86 320 86t318 -86t110 -286v-856q0 -200 -110 -286t-318 -86t-320 86q-111 85 -111 286v856q0 201 111 286zM486 358v854q0 39 -29 39t-29 -39v-854q0 -39 29 -39t29 39z" />
    <glyph glyph-name="Ohungarumlaut" unicode="&#x150;" 
d="M387 1666h-349l93 281h350zM853 1666h-350l94 281h350zM138 1499q112 86 320 86t318 -86t110 -286v-856q0 -200 -110 -286t-318 -86t-320 86q-111 85 -111 286v856q0 201 111 286zM486 358v854q0 39 -29 39t-29 -39v-854q0 -39 29 -39t29 39z" />
    <glyph glyph-name="ohungarumlaut" unicode="&#x151;" 
d="M387 1666h-349l93 281h350zM853 1666h-350l94 281h350zM138 1499q112 86 320 86t318 -86t110 -286v-856q0 -200 -110 -286t-318 -86t-320 86q-111 85 -111 286v856q0 201 111 286zM486 358v854q0 39 -29 39t-29 -39v-854q0 -39 29 -39t29 39z" />
    <glyph glyph-name="OE" unicode="&#x152;" horiz-adv-x="1131" 
d="M1104 1570v-334h-217v-280h212v-331h-212v-290h217v-335h-484q-75 -15 -163 -15q-207 0 -319 86q-111 85 -111 286v856q0 201 111 286q112 86 319 86q87 0 163 -15h484zM428 1212v-854q0 -39 29 -39t29 39v854q0 39 -29 39t-29 -39z" />
    <glyph glyph-name="oe" unicode="&#x153;" horiz-adv-x="1131" 
d="M1104 1570v-334h-217v-280h212v-331h-212v-290h217v-335h-484q-75 -15 -163 -15q-207 0 -319 86q-111 85 -111 286v856q0 201 111 286q112 86 319 86q87 0 163 -15h484zM428 1212v-854q0 -39 29 -39t29 39v854q0 39 -29 39t-29 -39z" />
    <glyph glyph-name="Racute" unicode="&#x154;" horiz-adv-x="914" 
d="M389 1937h350l-94 -282h-350zM782 519l140 -519h-361l-104 425h-29v-425h-401v1570h521q201 0 268 -79q66 -79 66 -291v-430q0 -164 -100 -251zM451 1237h-23v-507h40q24 8 24 41v424q0 42 -41 42z" />
    <glyph glyph-name="racute" unicode="&#x155;" horiz-adv-x="914" 
d="M389 1937h350l-94 -282h-350zM782 519l140 -519h-361l-104 425h-29v-425h-401v1570h521q201 0 268 -79q66 -79 66 -291v-430q0 -164 -100 -251zM451 1237h-23v-507h40q24 8 24 41v424q0 42 -41 42z" />
    <glyph glyph-name="uni0156" unicode="&#x156;" horiz-adv-x="914" 
d="M457 425h-29v-425h-401v1570h521q201 0 268 -79q66 -79 66 -291v-430q0 -164 -100 -251l140 -519h-361zM451 1237h-23v-507h40q24 8 24 41v424q0 42 -41 42zM352 -375h-108v298h389v-106q0 -368 -106 -505h-215q43 150 40 313z" />
    <glyph glyph-name="uni0157" unicode="&#x157;" horiz-adv-x="914" 
d="M457 425h-29v-425h-401v1570h521q201 0 268 -79q66 -79 66 -291v-430q0 -164 -100 -251l140 -519h-361zM451 1237h-23v-507h40q24 8 24 41v424q0 42 -41 42zM352 -375h-108v298h389v-106q0 -368 -106 -505h-215q43 150 40 313z" />
    <glyph glyph-name="Rcaron" unicode="&#x158;" horiz-adv-x="914" 
d="M794 1942l-103 -287h-445l-101 287h283l26 -90h31l24 90h285zM782 519l140 -519h-361l-104 425h-29v-425h-401v1570h521q201 0 268 -79q66 -79 66 -291v-430q0 -164 -100 -251zM451 1237h-23v-507h40q24 8 24 41v424q0 42 -41 42z" />
    <glyph glyph-name="rcaron" unicode="&#x159;" horiz-adv-x="914" 
d="M794 1942l-103 -287h-445l-101 287h283l26 -90h31l24 90h285zM782 519l140 -519h-361l-104 425h-29v-425h-401v1570h521q201 0 268 -79q66 -79 66 -291v-430q0 -164 -100 -251zM451 1237h-23v-507h40q24 8 24 41v424q0 42 -41 42z" />
    <glyph glyph-name="Sacute" unicode="&#x15a;" horiz-adv-x="916" 
d="M638 1655h-350l94 282h350zM876 1212v-220h-384v218q0 41 -29 41q-31 0 -31 -41v-183q0 -71 117 -105q49 -16 108 -42q53 -25 109 -59q50 -33 83 -98q33 -66 33 -156v-209q0 -192 -105 -281t-314 -89t-314 89t-105 281v221h384v-219q0 -39 31 -39q29 0 29 39v183
q0 24 -11.5 42t-36 32t-47.5 23.5t-62.5 24.5t-65.5 26q-53 23 -107 59q-50 32 -83 98q-34 64 -34 156v208q0 192 105 281t313 89q209 0 313 -89t104 -281z" />
    <glyph glyph-name="sacute" unicode="&#x15b;" horiz-adv-x="916" 
d="M638 1655h-350l94 282h350zM876 1212v-220h-384v218q0 41 -29 41q-31 0 -31 -41v-183q0 -71 117 -105q49 -16 108 -42q53 -25 109 -59q50 -33 83 -98q33 -66 33 -156v-209q0 -192 -105 -281t-314 -89t-314 89t-105 281v221h384v-219q0 -39 31 -39q29 0 29 39v183
q0 24 -11.5 42t-36 32t-47.5 23.5t-62.5 24.5t-65.5 26q-53 23 -107 59q-50 32 -83 98q-34 64 -34 156v208q0 192 105 281t313 89q209 0 313 -89t104 -281z" />
    <glyph glyph-name="Scedilla" unicode="&#x15e;" horiz-adv-x="916" 
d="M432 1210v-183q0 -71 117 -105q49 -16 108 -42q53 -25 109 -59q50 -33 83 -98q33 -66 33 -156v-209q0 -309 -285 -360l-82 -61v-2q64 -15 110 -57t46 -114t-25 -119q-26 -48 -75 -69q-48 -20 -93 -28q-42 -7 -106 -7h-68v176h68q25 0 41.5 13t16.5 34q0 46 -51 47h-75
v121l78 59q-169 15 -253.5 104t-84.5 263v221h384v-219q0 -39 31 -39q29 0 29 39v183q0 24 -11.5 42t-36 32t-47.5 23.5t-62.5 24.5t-65.5 26q-53 23 -107 59q-50 32 -83 98q-34 64 -34 156v208q0 192 105 281t313 89q209 0 313 -89t104 -281v-220h-384v218q0 41 -29 41
q-31 0 -31 -41z" />
    <glyph glyph-name="scedilla" unicode="&#x15f;" horiz-adv-x="916" 
d="M432 1210v-183q0 -71 117 -105q49 -16 108 -42q53 -25 109 -59q50 -33 83 -98q33 -66 33 -156v-209q0 -309 -285 -360l-82 -61v-2q64 -15 110 -57t46 -114t-25 -119q-26 -48 -75 -69q-48 -20 -93 -28q-42 -7 -106 -7h-68v176h68q25 0 41.5 13t16.5 34q0 46 -51 47h-75
v121l78 59q-169 15 -253.5 104t-84.5 263v221h384v-219q0 -39 31 -39q29 0 29 39v183q0 24 -11.5 42t-36 32t-47.5 23.5t-62.5 24.5t-65.5 26q-53 23 -107 59q-50 32 -83 98q-34 64 -34 156v208q0 192 105 281t313 89q209 0 313 -89t104 -281v-220h-384v218q0 41 -29 41
q-31 0 -31 -41z" />
    <glyph glyph-name="Scaron" unicode="&#x160;" horiz-adv-x="916" 
d="M239 1655l-101 287h284l25 -90h31l24 90h285l-103 -287h-445zM876 1212v-220h-384v218q0 41 -29 41q-31 0 -31 -41v-183q0 -71 117 -105q49 -16 108 -42q53 -25 109 -59q50 -33 83 -98q33 -66 33 -156v-209q0 -192 -105 -281t-314 -89t-314 89t-105 281v221h384v-219
q0 -39 31 -39q29 0 29 39v183q0 24 -11.5 42t-36 32t-47.5 23.5t-62.5 24.5t-65.5 26q-53 23 -107 59q-50 32 -83 98q-34 64 -34 156v208q0 192 105 281t313 89q209 0 313 -89t104 -281z" />
    <glyph glyph-name="scaron" unicode="&#x161;" horiz-adv-x="916" 
d="M239 1655l-101 287h284l25 -90h31l24 90h285l-103 -287h-445zM876 1212v-220h-384v218q0 41 -29 41q-31 0 -31 -41v-183q0 -71 117 -105q49 -16 108 -42q53 -25 109 -59q50 -33 83 -98q33 -66 33 -156v-209q0 -192 -105 -281t-314 -89t-314 89t-105 281v221h384v-219
q0 -39 31 -39q29 0 29 39v183q0 24 -11.5 42t-36 32t-47.5 23.5t-62.5 24.5t-65.5 26q-53 23 -107 59q-50 32 -83 98q-34 64 -34 156v208q0 192 105 281t313 89q209 0 313 -89t104 -281z" />
    <glyph glyph-name="uni0162" unicode="&#x162;" horiz-adv-x="861" 
d="M631 0h-64l-84 -63v-2q62 -15 109 -57q46 -42 46 -114t-25 -119q-25 -48 -74 -69q-48 -20 -93 -28q-42 -7 -106 -7h-69v176h69q25 0 41.5 13t16.5 34q0 46 -52 47h-75v121l89 68h-130v1236h-203v334h808v-334h-204v-1236z" />
    <glyph glyph-name="uni0163" unicode="&#x163;" horiz-adv-x="861" 
d="M631 0h-64l-84 -63v-2q62 -15 109 -57q46 -42 46 -114t-25 -119q-25 -48 -74 -69q-48 -20 -93 -28q-42 -7 -106 -7h-69v176h69q25 0 41.5 13t16.5 34q0 46 -52 47h-75v121l89 68h-130v1236h-203v334h808v-334h-204v-1236z" />
    <glyph glyph-name="Tcaron" unicode="&#x164;" horiz-adv-x="861" 
d="M754 1942l-102 -287h-445l-101 287h283l26 -90h30l24 90h285zM27 1570h808v-334h-204v-1236h-401v1236h-203v334z" />
    <glyph glyph-name="tcaron" unicode="&#x165;" horiz-adv-x="861" 
d="M754 1942l-102 -287h-445l-101 287h283l26 -90h30l24 90h285zM27 1570h808v-334h-204v-1236h-401v1236h-203v334z" />
    <glyph glyph-name="Tbar" unicode="&#x166;" horiz-adv-x="868" 
d="M631 1017h210v-334h-210v-683h-401v683h-179v334h179v219h-203v334h808v-334h-204v-219z" />
    <glyph glyph-name="tbar" unicode="&#x167;" horiz-adv-x="868" 
d="M631 1017h210v-334h-210v-683h-401v683h-179v334h179v219h-203v334h808v-334h-204v-219z" />
    <glyph glyph-name="Umacron" unicode="&#x16a;" 
d="M768 1678h-620v322h620v-322zM486 1570h400v-1213q0 -200 -110 -286t-318 -86t-320 86q-111 85 -111 286v1213h401v-1212q0 -39 29 -39t29 39v1212z" />
    <glyph glyph-name="umacron" unicode="&#x16b;" 
d="M768 1678h-620v322h620v-322zM486 1570h400v-1213q0 -200 -110 -286t-318 -86t-320 86q-111 85 -111 286v1213h401v-1212q0 -39 29 -39t29 39v1212z" />
    <glyph glyph-name="Ubreve" unicode="&#x16c;" 
d="M715 1696q-74 -44 -257 -44q-185 0 -259 44t-74 168v80h257v-26q0 -26 75 -25q73 0 74 25v26h257v-80q0 -125 -73 -168zM486 1570h400v-1213q0 -200 -110 -286t-318 -86t-320 86q-111 85 -111 286v1213h401v-1212q0 -39 29 -39t29 39v1212z" />
    <glyph glyph-name="ubreve" unicode="&#x16d;" 
d="M726 1696q-74 -44 -258 -44q-185 0 -259 44t-74 168v80h258v-26q0 -26 75 -25q73 0 73 25v26h258v-80q0 -125 -73 -168zM486 1570h400v-1213q0 -200 -110 -286t-318 -86t-320 86q-111 85 -111 286v1213h401v-1212q0 -39 29 -39t29 39v1212z" />
    <glyph glyph-name="Uring" unicode="&#x16e;" 
d="M611 1640q-60 -60 -153 -60q-94 0 -153 60q-59 61 -59 151q0 91 58 149q59 59 154 59t154 -59t59 -149q0 -91 -60 -151zM457 1758q31 0 33 33q0 32 -33 32q-31 0 -31 -32q0 -33 31 -33zM486 1570h400v-1213q0 -200 -110 -286t-318 -86t-320 86q-111 85 -111 286v1213h401
v-1212q0 -39 29 -39t29 39v1212z" />
    <glyph glyph-name="uring" unicode="&#x16f;" 
d="M611 1640q-60 -60 -153 -60q-94 0 -153 60q-59 61 -59 151q0 91 58 149q59 59 154 59t154 -59t59 -149q0 -91 -60 -151zM457 1758q31 0 33 33q0 32 -33 32q-31 0 -31 -32q0 -33 31 -33zM486 1570h400v-1213q0 -200 -110 -286t-318 -86t-320 86q-111 85 -111 286v1213h401
v-1212q0 -39 29 -39t29 39v1212z" />
    <glyph glyph-name="Uhungarumlaut" unicode="&#x170;" 
d="M387 1666h-349l93 281h350zM853 1666h-350l94 281h350zM486 1570h400v-1213q0 -200 -110 -286t-318 -86t-320 86q-111 85 -111 286v1213h401v-1212q0 -39 29 -39t29 39v1212z" />
    <glyph glyph-name="uhungarumlaut" unicode="&#x171;" 
d="M387 1666h-349l93 281h350zM853 1666h-350l94 281h350zM486 1570h400v-1213q0 -200 -110 -286t-318 -86t-320 86q-111 85 -111 286v1213h401v-1212q0 -39 29 -39t29 39v1212z" />
    <glyph glyph-name="Uogonek" unicode="&#x172;" 
d="M486 358v1212h400v-1213q0 -321 -311 -366q-28 -5 -39.5 -16.5t-11.5 -35.5q0 -55 72 -57h109l-31 -264h-82q-200 0 -309 79t-109 204q0 73 36 126q-183 79 -183 330v1213h401v-1212q0 -39 29 -39t29 39z" />
    <glyph glyph-name="uogonek" unicode="&#x173;" 
d="M486 358v1212h400v-1213q0 -321 -311 -366q-28 -5 -39.5 -16.5t-11.5 -35.5q0 -55 72 -57h109l-31 -264h-82q-200 0 -309 79t-109 204q0 73 36 126q-183 79 -183 330v1213h401v-1212q0 -39 29 -39t29 39z" />
    <glyph glyph-name="Wcircumflex" unicode="&#x174;" horiz-adv-x="1646" 
d="M783 1655h-283l101 287h445l103 -287h-285l-24 91h-31zM1183 432l51 1138h389l-121 -1570h-615l-54 1137h-17l-57 -1137h-614l-121 1570h389l51 -1138h17l65 1138h555l65 -1138h17z" />
    <glyph glyph-name="wcircumflex" unicode="&#x175;" horiz-adv-x="1646" 
d="M783 1655h-283l101 287h445l103 -287h-285l-24 91h-31zM1183 432l51 1138h389l-121 -1570h-615l-54 1137h-17l-57 -1137h-614l-121 1570h389l51 -1138h17l65 1138h555l65 -1138h17z" />
    <glyph glyph-name="Ycircumflex" unicode="&#x176;" horiz-adv-x="1013" 
d="M522 1746h-30l-26 -91h-283l100 287h446l102 -287h-285zM517 1082l92 488h383l-289 -1051v-519h-394v519l-287 1051h381l92 -488h22z" />
    <glyph glyph-name="ycircumflex" unicode="&#x177;" horiz-adv-x="1013" 
d="M522 1746h-30l-26 -91h-283l100 287h446l102 -287h-285zM517 1082l92 488h383l-289 -1051v-519h-394v519l-287 1051h381l92 -488h22z" />
    <glyph glyph-name="Ydieresis" unicode="&#x178;" horiz-adv-x="1013" 
d="M425 1716q-47 -45 -112 -45q-67 0 -112 45q-46 45 -46 114q0 68 46 114q45 46 112 46q66 0 112 -46t46 -114q0 -69 -46 -114zM812 1716q-46 -45 -112 -45q-67 0 -112 45t-45 114q0 68 45 114t112 46q66 0 112 -46q45 -46 45 -114q0 -69 -45 -114zM517 1082l92 488h383
l-289 -1051v-519h-394v519l-287 1051h381l92 -488h22z" />
    <glyph glyph-name="Zacute" unicode="&#x179;" horiz-adv-x="800" 
d="M577 1655h-350l94 282h350zM759 0h-727v335l354 875v26h-340v334h722v-334l-365 -876v-25h356v-335z" />
    <glyph glyph-name="zacute" unicode="&#x17a;" horiz-adv-x="800" 
d="M577 1655h-350l94 282h350zM759 0h-727v335l354 875v26h-340v334h722v-334l-365 -876v-25h356v-335z" />
    <glyph glyph-name="Zdotaccent" unicode="&#x17b;" horiz-adv-x="800" 
d="M401 1671q-71 0 -118 46q-49 46 -49 113q0 68 49 114q47 46 118 46q68 0 117 -46t49 -114q0 -67 -49 -113t-117 -46zM759 0h-727v335l354 875v26h-340v334h722v-334l-365 -876v-25h356v-335z" />
    <glyph glyph-name="zdotaccent" unicode="&#x17c;" horiz-adv-x="800" 
d="M401 1671q-71 0 -118 46q-49 46 -49 113q0 68 49 114q47 46 118 46q68 0 117 -46t49 -114q0 -67 -49 -113t-117 -46zM759 0h-727v335l354 875v26h-340v334h722v-334l-365 -876v-25h356v-335z" />
    <glyph glyph-name="Zcaron" unicode="&#x17d;" horiz-adv-x="800" 
d="M177 1655l-100 287h283l26 -90h30l24 90h285l-102 -287h-446zM759 0h-727v335l354 875v26h-340v334h722v-334l-365 -876v-25h356v-335z" />
    <glyph glyph-name="zcaron" unicode="&#x17e;" horiz-adv-x="800" 
d="M177 1655l-100 287h283l26 -90h30l24 90h285l-102 -287h-446zM759 0h-727v335l354 875v26h-340v334h722v-334l-365 -876v-25h356v-335z" />
    <glyph glyph-name="florin" unicode="&#x192;" horiz-adv-x="1392" 
d="M1359 1210v-220h-400v218q0 38 -29 40q-29 0 -29 -40v-268h224v-310h-224v-275q0 -198 -111 -285t-319 -87t-319 87t-111 285v224h401v-221q0 -41 29 -41t29 41v272h-222v310h222v270q0 200 111 286q112 86 319 86t319 -86q110 -86 110 -286z" />
    <glyph glyph-name="uni01CD" unicode="&#x1cd;" horiz-adv-x="986" 
d="M816 1942l-103 -287h-445l-101 287h284l25 -90h31l24 90h285zM971 0h-382l-14 225h-164l-13 -225h-383l137 1570h683zM474 1208l-41 -647h122l-41 647h-40z" />
    <glyph glyph-name="uni01CE" unicode="&#x1ce;" horiz-adv-x="986" 
d="M816 1942l-103 -287h-445l-101 287h284l25 -90h31l24 90h285zM971 0h-382l-14 225h-164l-13 -225h-383l137 1570h683zM474 1208l-41 -647h122l-41 647h-40z" />
    <glyph glyph-name="uni01CF" unicode="&#x1cf;" horiz-adv-x="455" 
d="M5 1655l-101 287h284l25 -90h31l24 90h285l-102 -287h-446zM428 0h-401v1570h401v-1570z" />
    <glyph glyph-name="uni01D0" unicode="&#x1d0;" horiz-adv-x="455" 
d="M5 1655l-101 287h284l25 -90h31l24 90h285l-102 -287h-446zM428 0h-401v1570h401v-1570z" />
    <glyph glyph-name="uni01D1" unicode="&#x1d1;" 
d="M234 1655l-101 287h283l26 -90h31l24 90h285l-103 -287h-445zM138 1499q112 86 320 86t318 -86t110 -286v-856q0 -200 -110 -286t-318 -86t-320 86q-111 85 -111 286v856q0 201 111 286zM486 358v854q0 39 -29 39t-29 -39v-854q0 -39 29 -39t29 39z" />
    <glyph glyph-name="uni01D2" unicode="&#x1d2;" 
d="M234 1655l-101 287h283l26 -90h31l24 90h285l-103 -287h-445zM138 1499q112 86 320 86t318 -86t110 -286v-856q0 -200 -110 -286t-318 -86t-320 86q-111 85 -111 286v856q0 201 111 286zM486 358v854q0 39 -29 39t-29 -39v-854q0 -39 29 -39t29 39z" />
    <glyph glyph-name="uni01D3" unicode="&#x1d3;" 
d="M234 1655l-101 287h283l26 -90h31l24 90h285l-103 -287h-445zM486 1570h400v-1213q0 -200 -110 -286t-318 -86t-320 86q-111 85 -111 286v1213h401v-1212q0 -39 29 -39t29 39v1212z" />
    <glyph glyph-name="uni01D4" unicode="&#x1d4;" 
d="M234 1655l-101 287h283l26 -90h31l24 90h285l-103 -287h-445zM486 1570h400v-1213q0 -200 -110 -286t-318 -86t-320 86q-111 85 -111 286v1213h401v-1212q0 -39 29 -39t29 39v1212z" />
    <glyph glyph-name="uni01EA" unicode="&#x1ea;" 
d="M138 1499q112 86 320 86t318 -86t110 -286v-856q0 -305 -282 -360v-9q-68 -5 -68 -53q0 -53 72 -53h109l-31 -264h-82q-199 0 -308 79q-110 80 -110 201q0 72 41 122q-200 75 -200 337v856q0 201 111 286zM428 1212v-854q0 -39 29 -39t29 39v854q0 39 -29 39t-29 -39z
" />
    <glyph glyph-name="uni0218" unicode="&#x218;" horiz-adv-x="916" 
d="M876 1212v-220h-384v218q0 41 -29 41q-31 0 -31 -41v-183q0 -71 117 -105q49 -16 108 -42q53 -25 109 -59q50 -33 83 -98q33 -66 33 -156v-209q0 -192 -105 -281t-314 -89t-314 89t-105 281v221h384v-219q0 -39 31 -39q29 0 29 39v183q0 24 -11.5 42t-36 32t-47.5 23.5
t-62.5 24.5t-65.5 26q-53 23 -107 59q-50 32 -83 98q-34 64 -34 156v208q0 192 105 281t313 89q209 0 313 -89t104 -281zM521 -688h-216q43 150 40 313h-108v298h389v-106q0 -367 -105 -505z" />
    <glyph glyph-name="uni0219" unicode="&#x219;" horiz-adv-x="916" 
d="M876 1212v-220h-384v218q0 41 -29 41q-31 0 -31 -41v-183q0 -71 117 -105q49 -16 108 -42q53 -25 109 -59q50 -33 83 -98q33 -66 33 -156v-209q0 -192 -105 -281t-314 -89t-314 89t-105 281v221h384v-219q0 -39 31 -39q29 0 29 39v183q0 24 -11.5 42t-36 32t-47.5 23.5
t-62.5 24.5t-65.5 26q-53 23 -107 59q-50 32 -83 98q-34 64 -34 156v208q0 192 105 281t313 89q209 0 313 -89t104 -281zM521 -688h-216q43 150 40 313h-108v298h389v-106q0 -367 -105 -505z" />
    <glyph glyph-name="uni021A" unicode="&#x21a;" horiz-adv-x="861" 
d="M27 1570h808v-334h-204v-1236h-401v1236h-203v334zM312 -375h-107v298h389v-106q0 -368 -106 -505h-215q44 152 39 313z" />
    <glyph glyph-name="uni021B" unicode="&#x21b;" horiz-adv-x="861" 
d="M27 1570h808v-334h-204v-1236h-401v1236h-203v334zM312 -375h-107v298h389v-106q0 -368 -106 -505h-215q44 152 39 313z" />
    <glyph glyph-name="circumflex" unicode="&#x2c6;" horiz-adv-x="648" 
d="M283 1161h-283l101 286h445l103 -286h-285l-24 90h-31z" />
    <glyph glyph-name="caron" unicode="&#x2c7;" horiz-adv-x="648" 
d="M101 1161l-101 286h283l26 -90h31l24 90h285l-103 -286h-445z" />
    <glyph glyph-name="breve" unicode="&#x2d8;" horiz-adv-x="663" 
d="M591 1201q-74 -44 -258 -44q-185 0 -259 44t-74 168v80h258v-26q0 -27 75 -25q73 0 73 25v26h258v-80q0 -125 -73 -168z" />
    <glyph glyph-name="dotaccent" unicode="&#x2d9;" horiz-adv-x="332" 
d="M167 1176q-71 0 -118 46q-49 46 -49 113q0 68 49 114q47 46 118 46q68 0 117 -46t49 -114q0 -67 -49 -113t-117 -46z" />
    <glyph glyph-name="ring" unicode="&#x2da;" horiz-adv-x="424" 
d="M365 1145q-60 -60 -153 -60q-94 0 -153 60q-59 61 -59 151q0 91 58 149q59 59 154 59t154 -59t59 -149q0 -91 -60 -151zM212 1263q32 0 32 33q0 32 -32 32q-31 0 -31 -32q0 -33 31 -33z" />
    <glyph glyph-name="ogonek" unicode="&#x2db;" horiz-adv-x="530" 
d="M531 220v-220h-106q-75 0 -75 -58q0 -60 75 -60h106l-31 -264h-82q-202 0 -310 84.5t-108 239.5q0 278 418 278h113z" />
    <glyph glyph-name="tilde" unicode="&#x2dc;" horiz-adv-x="779" 
d="M539 1143q-56 0 -102 16.5t-70 39.5q-57 55 -111 55q-40 0 -64.5 -18t-25.5 -50h-166q-3 136 59 204.5t183 68.5q76 0 126 -28q52 -30 84 -55q34 -28 72 -28q40 0 64.5 18.5t25.5 50.5h166q3 -136 -59.5 -205t-181.5 -69z" />
    <glyph glyph-name="hungarumlaut" unicode="&#x2dd;" horiz-adv-x="909" 
d="M350 1161h-350l94 281h350zM816 1161h-350l94 281h350z" />
    <glyph glyph-name="uni0326" unicode="&#x326;" horiz-adv-x="0" 
d="M-159 -688h-215q44 152 39 313h-107v298h389v-106q0 -368 -106 -505z" />
    <glyph glyph-name="uni0394" unicode="&#x394;" horiz-adv-x="981" 
d="M152 1570h683l136 -1570h-956zM474 1208l-54 -850h147l-53 850h-40z" />
    <glyph glyph-name="uni03A9" unicode="&#x3a9;" horiz-adv-x="1261" 
d="M1068 1198v-840h166v-358h-568v1195q0 46 -36 46q-34 0 -34 -46v-1195h-569v358h166v840q0 217 109 305t328 88q220 0 329 -88t109 -305z" />
    <glyph glyph-name="uni03BC" unicode="&#x3bc;" 
d="M486 358v1212h400v-1213q0 -200 -110 -286t-319 -86h-15v-241h-403v495q-12 49 -12 118v1213h415v-1247q3 -1 8 -2t7 -2q29 0 29 39z" />
    <glyph glyph-name="pi" unicode="&#x3c0;" horiz-adv-x="1385" 
d="M1362 1570v-358h-183v-755q0 -121 144 -121l-63 -351q-245 0 -363 91q-120 92 -120 310v826h-164v-1212h-403v1212h-183v358h1335z" />
    <glyph glyph-name="Wgrave" unicode="&#x1e80;" horiz-adv-x="1646" 
d="M910 1937l94 -282h-350l-94 282h350zM1183 432l51 1138h389l-121 -1570h-615l-54 1137h-17l-57 -1137h-614l-121 1570h389l51 -1138h17l65 1138h555l65 -1138h17z" />
    <glyph glyph-name="wgrave" unicode="&#x1e81;" horiz-adv-x="1646" 
d="M910 1937l94 -282h-350l-94 282h350zM1183 432l51 1138h389l-121 -1570h-615l-54 1137h-17l-57 -1137h-614l-121 1570h389l51 -1138h17l65 1138h555l65 -1138h17z" />
    <glyph glyph-name="Wacute" unicode="&#x1e82;" horiz-adv-x="1646" 
d="M1000 1655h-350l94 282h350zM1183 432l51 1138h389l-121 -1570h-615l-54 1137h-17l-57 -1137h-614l-121 1570h389l51 -1138h17l65 1138h555l65 -1138h17z" />
    <glyph glyph-name="wacute" unicode="&#x1e83;" horiz-adv-x="1646" 
d="M1000 1655h-350l94 282h350zM1183 432l51 1138h389l-121 -1570h-615l-54 1137h-17l-57 -1137h-614l-121 1570h389l51 -1138h17l65 1138h555l65 -1138h17z" />
    <glyph glyph-name="Wdieresis" unicode="&#x1e84;" horiz-adv-x="1646" 
d="M742 1716q-46 -45 -112 -45q-67 0 -112 45t-45 114q0 68 45 114t112 46q66 0 112 -46t46 -114q0 -69 -46 -114zM1129 1716q-45 -45 -111 -45q-67 0 -112 45q-46 45 -46 114q0 68 46 114q45 46 112 46q66 0 111 -46t45 -114q0 -69 -45 -114zM1183 432l51 1138h389
l-121 -1570h-615l-54 1137h-17l-57 -1137h-614l-121 1570h389l51 -1138h17l65 1138h555l65 -1138h17z" />
    <glyph glyph-name="wdieresis" unicode="&#x1e85;" horiz-adv-x="1646" 
d="M742 1716q-46 -45 -112 -45q-67 0 -112 45t-45 114q0 68 45 114t112 46q66 0 112 -46t46 -114q0 -69 -46 -114zM1129 1716q-45 -45 -111 -45q-67 0 -112 45q-46 45 -46 114q0 68 46 114q45 46 112 46q66 0 111 -46t45 -114q0 -69 -45 -114zM1183 432l51 1138h389
l-121 -1570h-615l-54 1137h-17l-57 -1137h-614l-121 1570h389l51 -1138h17l65 1138h555l65 -1138h17z" />
    <glyph glyph-name="uni1E9E" unicode="&#x1e9e;" horiz-adv-x="1037" 
d="M1017 1570l-184 -636q128 -68 128 -272v-339q0 -189 -67 -256t-263 -67h-172v311h48q32 0 42.5 17t10.5 65v204q0 34 -10 48t-36 14h-55v310l82 291h-113v-1260h-401v1570h990z" />
    <glyph glyph-name="Ygrave" unicode="&#x1ef2;" horiz-adv-x="1013" 
d="M592 1937l94 -282h-350l-94 282h350zM517 1082l92 488h383l-289 -1051v-519h-394v519l-287 1051h381l92 -488h22z" />
    <glyph glyph-name="ygrave" unicode="&#x1ef3;" horiz-adv-x="1013" 
d="M592 1937l94 -282h-350l-94 282h350zM517 1082l92 488h383l-289 -1051v-519h-394v519l-287 1051h381l92 -488h22z" />
    <glyph glyph-name="endash" unicode="&#x2013;" horiz-adv-x="1315" 
d="M1289 606h-1262v358h1262v-358z" />
    <glyph glyph-name="emdash" unicode="&#x2014;" horiz-adv-x="1454" 
d="M1427 606h-1400v358h1400v-358z" />
    <glyph glyph-name="quoteleft" unicode="&#x2018;" horiz-adv-x="535" 
d="M171 1570h220q-48 -308 -34 -486h129v-343h-435v95q0 438 120 734z" />
    <glyph glyph-name="quoteright" unicode="&#x2019;" horiz-adv-x="535" 
d="M365 741h-220q48 308 34 486h-130v343h436v-95q0 -439 -120 -734z" />
    <glyph glyph-name="quotesinglbase" unicode="&#x201a;" horiz-adv-x="539" 
d="M370 -350h-242q48 173 44 350h-121v335h437v-118q0 -198 -32 -349q-32 -146 -86 -218z" />
    <glyph glyph-name="quotedblleft" unicode="&#x201c;" horiz-adv-x="1012" 
d="M171 1570h220q-48 -308 -34 -486h129v-343h-435v95q0 438 120 734zM647 1570h220q-48 -308 -34 -486h130v-343h-436v95q0 438 120 734z" />
    <glyph glyph-name="quotedblright" unicode="&#x201d;" horiz-adv-x="1012" 
d="M365 741h-220q48 308 34 486h-130v343h436v-95q0 -439 -120 -734zM841 741h-220q48 308 34 486h-129v343h435v-95q0 -439 -120 -734z" />
    <glyph glyph-name="quotedblbase" unicode="&#x201e;" horiz-adv-x="1012" 
d="M365 -423h-220q48 308 34 486h-130v343h436v-95q0 -439 -120 -734zM841 -423h-220q48 308 34 486h-129v343h435v-95q0 -439 -120 -734z" />
    <glyph glyph-name="dagger" unicode="&#x2020;" horiz-adv-x="1225" 
d="M814 1367h343v-382h-343v-342h-403v342h-343v382h343v341h403v-341z" />
    <glyph glyph-name="daggerdbl" unicode="&#x2021;" horiz-adv-x="1225" 
d="M814 985v-405h343v-382h-343v-341h-403v341h-343v382h343v405h-343v382h343v341h403v-341h343v-382h-343z" />
    <glyph glyph-name="bullet" unicode="&#x2022;" horiz-adv-x="906" 
d="M454 451q-138 0 -236 98q-99 97 -99 236q0 138 99 237q98 98 236 98q137 0 235 -98q98 -100 98 -237q0 -138 -98 -236t-235 -98z" />
    <glyph glyph-name="ellipsis" unicode="&#x2026;" horiz-adv-x="1546" 
d="M405 28q-61 -62 -149 -62t-149 62q-63 62 -63 146q0 86 63 147q61 61 149 61t149 -61t61 -147q0 -85 -61 -146zM922 28q-61 -62 -149 -62t-149 62q-63 61 -63 146q0 86 63 147q61 61 149 61t149 -61t61 -147q0 -85 -61 -146zM1439 28q-61 -62 -149 -62t-149 62
q-62 62 -62 146q0 85 62 147q61 61 149 61t149 -61t61 -147q0 -85 -61 -146z" />
    <glyph glyph-name="perthousand" unicode="&#x2030;" horiz-adv-x="3024" 
d="M130 1502q102 90 299 90q195 0 299 -90q103 -91 103 -302v-251q0 -212 -103 -302q-103 -91 -299 -91q-197 0 -299 90q-103 90 -103 303v251q0 212 103 302zM894 0h-379l726 1570h379zM457 932v283q0 43 -29 43t-29 -43v-283q0 -43 29 -43t29 43zM2006 68
q-104 -90 -299 -90q-197 0 -300 91q-103 90 -103 301v251q0 212 103 303q103 90 300 90q195 0 299 -89q102 -90 102 -304v-251q0 -212 -102 -302zM2895 68q-103 -90 -299 -90t-299 91q-104 90 -104 301v251q0 211 104 303q103 90 299 90q195 0 299 -89q102 -90 102 -304
v-251q0 -212 -102 -302zM1678 638v-283q0 -43 29 -43t29 43v283q0 43 -29 43t-29 -43zM2567 638v-283q0 -43 29 -43t29 43v283q0 43 -29 43t-29 -43z" />
    <glyph glyph-name="guilsinglleft" unicode="&#x2039;" horiz-adv-x="880" 
d="M476 717l331 -490h-403l-331 490l331 490h403z" />
    <glyph glyph-name="guilsinglright" unicode="&#x203a;" horiz-adv-x="880" 
d="M476 227h-403l331 490l-331 490h403l331 -490z" />
    <glyph glyph-name="Euro" unicode="&#x20ac;" horiz-adv-x="1005" 
d="M976 1213v-249h-399v248q0 39 -29 39t-29 -39v-297h298v-111h-298v-43h298v-109h-298v-297q0 -41 29 -41t29 41v247h399v-250q0 -198 -111 -285t-317 -87q-208 0 -319 87t-111 285v300h-91v109h91v43h-91v111h91v298q0 201 111 286q112 86 319 86q208 0 318 -86t110 -286
z" />
    <glyph glyph-name="uni2116" unicode="&#x2116;" horiz-adv-x="1870" 
d="M1468 1582q192 0 284 -87q91 -87 91 -287v-332q0 -202 -90 -287q-92 -86 -285 -86q-195 0 -285 87q-91 85 -91 286v332q0 201 91 288q91 86 285 86zM403 0h-376v1570h514l92 -903h22l-12 246v657h376v-1570h-490l-114 903h-24l12 -244v-659zM1493 889v319q0 39 -25 40
q-26 0 -26 -40v-319q0 -41 26 -41q15 0 20 8.5t5 32.5zM1843 0h-751v358h751v-358z" />
    <glyph glyph-name="trademark" unicode="&#x2122;" horiz-adv-x="600" 
d="M27 1570h195v-72h-56v-274h-81v274h-58v72zM420 1295l17 275h135v-346h-75v269h-11l-23 -269h-98l-24 269h-10v-269h-75v346h137l17 -275h10z" />
    <glyph glyph-name="partialdiff" unicode="&#x2202;" horiz-adv-x="907" 
d="M452 -15q-213 0 -319 88t-106 282v258q0 199 100 275q88 66 214 66q58 0 93 -14q17 -7 32 -17q11 -7 14 -10l3 316q0 41 -29 41q-27 0 -27 -41v-225h-389v230q0 195 102 282.5t314 87.5q215 0 321 -88t106 -282v-879q0 -192 -107.5 -281t-321.5 -89zM425 573v-215
q0 -39 29 -39t29 39v215q0 24 -6 32.5t-23 8.5q-29 0 -29 -41z" />
    <glyph glyph-name="product" unicode="&#x220f;" horiz-adv-x="928" 
d="M27 1570h874v-1570h-403v1212h-68v-1212h-403v1570z" />
    <glyph glyph-name="summation" unicode="&#x2211;" horiz-adv-x="785" 
d="M758 0h-731v358l287 412l-287 442v358h731v-358h-313l270 -415v-55l-270 -384h313v-358z" />
    <glyph glyph-name="minus" unicode="&#x2212;" horiz-adv-x="1107" 
d="M1080 594h-1053v382h1053v-382z" />
    <glyph glyph-name="radical" unicode="&#x221a;" horiz-adv-x="1056" 
d="M570 362l84 1208h385l-145 -1570h-677l-55 589h-147v356h485l39 -583h31z" />
    <glyph glyph-name="infinity" unicode="&#x221e;" horiz-adv-x="1430" 
d="M1046 1097q160 0 242 -106t82 -272q0 -171 -81 -277q-82 -106 -243 -106q-100 0 -177 50.5t-154 154.5q-77 -104 -153 -154.5t-175 -50.5q-162 0 -244 106q-83 107 -83 277q0 166 83 273q83 105 244 105q97 0 174 -50.5t154 -153.5q75 97 151 151q77 53 180 53zM427 585
q46 0 100 58q2 2 24 28t41 48q-13 15 -28 32t-23.5 27t-13.5 16q-15 17 -45 37q-28 19 -55 19q-55 0 -82.5 -36t-27.5 -95q2 -134 110 -134zM1004 585q109 0 109 134q0 60 -27 95.5t-82 35.5q-47 0 -101 -56q-5 -6 -13.5 -16t-23.5 -27t-28 -32q62 -71 66 -76q19 -20 46 -39
q26 -19 54 -19z" />
    <glyph glyph-name="integral" unicode="&#x222b;" horiz-adv-x="1392" 
d="M611 1496q112 86 319 86t319 -86q110 -86 110 -286v-220h-400v218q0 38 -29 40q-29 0 -29 -40v-853q0 -198 -111 -285t-319 -87t-319 87t-111 285v224h401v-221q0 -41 29 -41t29 41v852q0 200 111 286z" />
    <glyph glyph-name="approxequal" unicode="&#x2248;" horiz-adv-x="855" 
d="M580 758q-54 0 -99.5 17t-70.5 40q-61 55 -113 55q-39 0 -64 -19t-26 -51h-166q-5 275 242 275q54 0 100.5 -16.5t70.5 -39.5q58 -56 113 -56q38 0 63 18.5t27 49.5h166q2 -136 -60.5 -204.5t-182.5 -68.5zM580 352q-54 0 -99.5 16.5t-70.5 39.5q-62 56 -113 56
q-39 0 -64 -19t-26 -51h-166q-5 275 242 275q54 0 100.5 -16.5t70.5 -39.5q59 -57 113 -57q38 0 63 19t27 50h166q2 -136 -60.5 -204.5t-182.5 -68.5z" />
    <glyph glyph-name="notequal" unicode="&#x2260;" horiz-adv-x="1153" 
d="M1104 1231v-383h-327l-11 -124h338v-383h-374l-32 -341h-369l28 341h-306v383h338l10 124h-348v383h379l27 339h388l-33 -339h292z" />
    <glyph glyph-name="lessequal" unicode="&#x2264;" horiz-adv-x="544" 
d="M517 831v-399l-485 387v447l485 388v-400l-230 -198v-27zM466 27h-428v383h428v-383z" />
    <glyph glyph-name="greaterequal" unicode="&#x2265;" horiz-adv-x="544" 
d="M512 819l-485 -387v399l231 198v27l-231 198v400l485 -388v-447zM507 410v-383h-428v383h428z" />
    <glyph glyph-name="lozenge" unicode="&#x25ca;" horiz-adv-x="972" 
d="M826 0h-678l-121 785l121 785h678l119 -785zM410 785l63 -423h29l61 423l-61 423h-29z" />
    <glyph glyph-name="G.aalt" 
d="M886 1213v-215h-398v214q0 39 -31 39q-32 0 -32 -39v-854q0 -24 8.5 -31.5t32.5 -7.5t33.5 8.5t9.5 30.5v207l6 53h-46v321h417v-939h-138l-38 152q-31 -90 -98.5 -128.5t-191.5 -38.5q-393 0 -393 372v856q0 201 111 286q112 86 320 86t318 -86t110 -286z" />
    <glyph glyph-name="i.aalt" horiz-adv-x="455" 
d="M229 1671q-70 0 -119 46t-49 113q0 68 49 114t119 46q68 0 117 -46q48 -46 48 -114q0 -66 -48 -113q-49 -46 -117 -46zM428 0h-401v1570h401v-1570z" />
    <glyph glyph-name="g.aalt" 
d="M886 1213v-215h-398v214q0 39 -31 39q-32 0 -32 -39v-854q0 -24 8.5 -31.5t32.5 -7.5t33.5 8.5t9.5 30.5v207l6 53h-46v321h417v-939h-138l-38 152q-31 -90 -98.5 -128.5t-191.5 -38.5q-393 0 -393 372v856q0 201 111 286q112 86 320 86t318 -86t110 -286z" />
    </font>
</defs>
</svg>
